<?xml version="1.0" encoding="UTF-8" standalone="no"?>
<!-- Created with Serif DrawPlus 11, 0, 0, 18 (Mar 20, 15:09:53) (http://www.serif.com) -->
<svg version="1.1" xmlns="http://www.w3.org/2000/svg" xmlns:xlink="http://www.w3.org/1999/xlink" xmlns:i="http://ns.adobe.com/AdobeIllustrator/10.0/" width="1056" height="816">
	<g id="Green" i:layer="yes">
		<path id="dp_path001" fill="#99e070" fill-rule="evenodd" d="M 529.669,470.687 L 532.029,470.632 L 534.333,470.577 L 536.583,470.468 L 538.776,470.357 L 540.916,470.193 L 543.001,470.028 L 545.031,469.809 L 547.005,469.535 L 548.925,469.26 L 550.845,468.987 L 552.711,468.657 L 554.521,468.328 L 558.032,467.615 L 561.379,466.847 L 564.616,465.969 L 567.688,465.092 L 570.651,464.159 L 573.559,463.227 L 579.099,461.361 L 584.311,459.551 L 586.669,458.728 L 589.028,458.015 L 591.333,457.357 L 593.583,456.699 L 595.776,456.095 L 597.916,455.547 L 602.14,454.559 L 606.255,453.681 L 610.149,452.859 L 617.447,451.377 L 620.848,450.664 L 624.139,449.896 L 625.675,449.512 L 627.212,449.073 L 628.692,448.635 L 630.119,448.141 L 631.491,447.647 L 632.861,447.099 L 634.179,446.495 L 635.44,445.892 L 636.647,445.233 L 637.8,444.465 L 638.952,443.697 L 640.048,442.875 L 665.229,431.191 L 666.985,430.532 L 668.685,429.873 L 669.564,429.6 L 670.496,429.38 L 671.373,429.16 L 672.252,428.941 L 679.657,427.515 L 687.119,425.979 L 690.795,425.156 L 694.525,424.333 L 698.2,423.4 L 701.931,422.468 L 705.716,421.48 L 709.556,420.493 L 711.477,419.944 L 713.341,419.341 L 715.207,418.683 L 717.072,417.969 L 719.157,417.147 L 721.241,416.324 L 723.327,415.556 L 725.467,414.897 L 727.551,414.24 L 729.691,413.636 L 731.829,413.088 L 734.024,412.649 L 736.164,412.209 L 738.359,411.881 L 740.552,411.661 L 742.747,411.497 L 744.941,411.387 L 747.191,411.387 L 749.44,411.497 L 751.689,411.661 L 753.555,411.881 L 755.42,411.991 L 757.285,412.1 L 759.151,412.209 L 761.016,412.209 L 762.881,412.209 L 764.747,412.155 L 766.667,412.045 L 770.012,411.825 L 771.659,411.661 L 773.359,411.441 L 775.005,411.168 L 776.651,410.893 L 778.352,410.509 L 779.997,410.125 L 782.081,409.577 L 784.551,409.083 L 787.348,408.535 L 790.311,408.041 L 791.737,407.821 L 793.219,407.657 L 794.645,407.547 L 796.071,407.383 L 798.869,407.273 L 801.503,407.163 L 805.891,407.053 L 807.427,406.999 L 808.031,406.944 L 808.469,406.889 L 809.896,406.56 L 811.377,406.231 L 812.804,405.847 L 814.285,405.463 L 815.711,405.024 L 817.137,404.585 L 818.509,404.091 L 819.936,403.597 L 821.307,403.049 L 822.733,402.445 L 825.476,401.239 L 828.164,399.923 L 830.852,398.551 L 833.541,397.015 L 836.119,395.424 L 838.697,393.779 L 841.276,391.968 L 843.745,390.157 L 846.268,388.237 L 848.683,386.208 L 851.096,384.179 L 853.509,382.039 L 855.815,379.789 L 858.173,377.54 L 860.423,375.237 L 862.672,372.877 L 864.921,370.409 L 867.115,367.941 L 869.255,365.472 L 871.395,362.893 L 873.479,360.316 L 875.509,357.683 L 877.539,354.995 L 879.568,352.307 L 881.544,349.619 L 883.464,346.876 L 885.384,344.133 L 885.768,343.584 L 886.207,343.036 L 886.645,342.543 L 887.139,342.048 L 887.633,341.555 L 888.181,341.116 L 889.224,340.293 L 890.376,339.525 L 891.528,338.812 L 892.735,338.153 L 893.997,337.551 L 896.52,336.344 L 899.044,335.136 L 900.251,334.533 L 901.457,333.875 L 902.609,333.217 L 903.652,332.449 L 906.615,330.309 L 909.468,328.115 L 912.265,325.865 L 915.008,323.617 L 917.696,321.313 L 920.329,319.009 L 922.963,316.651 L 925.487,314.291 L 926.693,313.195 L 927.955,312.207 L 929.272,311.219 L 930.644,310.287 L 932.069,309.409 L 933.551,308.641 L 935.032,307.819 L 936.623,307.105 L 937.501,306.776 L 938.433,306.447 L 939.367,306.172 L 940.353,305.953 L 942.273,305.515 L 944.304,305.131 L 946.333,304.692 L 947.321,304.417 L 948.308,304.143 L 949.296,303.813 L 950.284,303.429 L 951.271,303.045 L 952.204,302.497 L 954.124,301.4 L 955.824,300.303 L 957.305,299.205 L 957.964,298.657 L 958.567,298.164 L 959.116,297.669 L 959.609,297.121 L 960.048,296.628 L 960.432,296.133 L 960.761,295.64 L 961.036,295.201 L 961.2,294.708 L 961.365,294.268 L 961.42,293.829 L 961.42,293.391 L 961.365,292.952 L 961.2,292.513 L 961.036,292.075 L 960.761,291.691 L 960.432,291.307 L 960.048,290.923 L 959.555,290.539 L 959.007,290.155 L 958.403,289.825 L 957.689,289.496 L 956.921,289.112 L 956.099,288.783 L 955.165,288.509 L 954.179,288.18 L 953.081,287.905 L 951.929,287.631 L 949.405,287.083 L 946.553,286.589 L 943.316,286.205 L 939.751,285.821 L 935.855,285.492 L 931.576,285.163 L 926.968,284.943 L 921.976,284.779 L 916.599,284.669 L 910.839,284.613 L 904.695,284.613 L 898.111,284.669 L 891.144,284.833 L 883.737,284.997 L 875.948,285.272 L 868.761,285.492 L 861.52,285.711 L 846.872,286.04 L 832.005,286.315 L 816.973,286.424 L 813.407,286.479 L 809.841,286.644 L 806.22,286.863 L 802.6,287.137 L 795.303,287.685 L 791.683,287.905 L 788.007,288.125 L 784.331,288.289 L 780.656,288.399 L 778.845,288.399 L 776.98,288.344 L 775.169,288.289 L 773.304,288.235 L 771.493,288.069 L 769.684,287.905 L 767.819,287.741 L 766.008,287.467 L 764.197,287.192 L 762.387,286.863 L 760.576,286.479 L 758.767,286.04 L 755.639,285.272 L 752.403,284.559 L 749.165,284.011 L 745.819,283.461 L 742.473,283.023 L 739.072,282.639 L 735.56,282.365 L 732.049,282.145 L 731.117,282.145 L 730.184,282.145 L 729.196,282.2 L 728.209,282.255 L 726.235,282.529 L 724.204,282.913 L 722.175,283.352 L 720.089,283.791 L 718.06,284.229 L 715.975,284.669 L 713.945,284.997 L 711.916,285.272 L 710.873,285.327 L 709.885,285.381 L 708.899,285.381 L 707.911,285.327 L 706.923,285.217 L 705.991,285.108 L 705.059,284.888 L 704.125,284.613 L 703.193,284.285 L 702.315,283.901 L 701.437,283.407 L 700.56,282.913 L 699.352,282.091 L 698.091,281.268 L 695.403,279.621 L 692.605,278.031 L 689.532,276.44 L 686.296,274.849 L 682.84,273.313 L 679.219,271.723 L 675.324,270.187 L 659.744,257.735 L 656.343,254.443 L 652.941,251.152 L 649.484,247.915 L 647.784,246.379 L 646.028,244.788 L 644.273,243.307 L 642.463,241.771 L 640.652,240.345 L 638.841,238.919 L 637.032,237.492 L 635.221,236.176 L 633.356,234.859 L 631.491,233.652 L 629.571,232.445 L 627.705,231.293 L 625.785,230.196 L 623.811,229.155 L 621.889,228.221 L 619.86,227.289 L 617.885,226.467 L 615.855,225.753 L 613.825,225.04 L 611.741,224.436 L 609.656,223.888 L 607.572,223.449 L 605.432,223.12 L 603.292,222.845 L 601.097,222.681 L 598.904,222.571 L 597.039,222.571 L 595.119,222.461 L 593.308,222.352 L 591.443,222.243 L 589.632,222.077 L 587.767,221.913 L 586.011,221.693 L 584.201,221.419 L 582.281,221.145 L 580.361,220.816 L 578.44,220.432 L 576.576,220.048 L 574.711,219.609 L 572.9,219.171 L 571.035,218.621 L 569.224,218.073 L 567.743,217.58 L 566.261,217.14 L 564.725,216.756 L 563.299,216.372 L 561.817,216.044 L 560.337,215.715 L 557.484,215.22 L 554.796,214.727 L 552.053,214.233 L 549.42,213.74 L 548.048,213.575 L 546.732,213.411 L 545.415,213.245 L 544.099,213.191 L 542.836,213.136 L 541.575,213.136 L 540.257,213.245 L 539.051,213.465 L 537.789,213.684 L 536.583,214.068 L 535.595,214.397 L 534.552,214.672 L 533.511,214.947 L 532.468,215.165 L 531.371,215.331 L 530.273,215.495 L 529.176,215.604 L 528.024,215.66 L 517.052,215.66 L 515.9,215.604 L 514.748,215.495 L 513.705,215.331 L 512.608,215.165 L 511.565,214.947 L 510.524,214.672 L 509.481,214.397 L 508.493,214.068 L 507.287,213.684 L 506.025,213.465 L 504.763,213.245 L 503.501,213.136 L 502.24,213.136 L 500.923,213.191 L 499.661,213.245 L 498.344,213.411 L 497.028,213.575 L 495.656,213.74 L 492.968,214.233 L 490.28,214.727 L 487.592,215.22 L 484.684,215.715 L 483.259,216.044 L 481.777,216.372 L 480.296,216.756 L 478.815,217.14 L 477.333,217.58 L 475.852,218.073 L 474.041,218.621 L 472.176,219.171 L 470.365,219.609 L 468.5,220.048 L 466.636,220.432 L 464.715,220.816 L 462.795,221.145 L 460.875,221.419 L 459.065,221.693 L 457.255,221.913 L 455.444,222.077 L 453.633,222.243 L 451.768,222.352 L 449.957,222.461 L 448.037,222.571 L 446.172,222.571 L 443.979,222.681 L 441.784,222.845 L 439.644,223.12 L 437.504,223.449 L 435.365,223.888 L 433.28,224.436 L 431.251,225.04 L 429.221,225.753 L 427.191,226.467 L 425.161,227.289 L 423.187,228.221 L 421.265,229.155 L 419.291,230.196 L 417.371,231.293 L 415.451,232.445 L 413.585,233.652 L 411.72,234.859 L 409.855,236.176 L 408.044,237.492 L 406.18,238.919 L 404.369,240.345 L 402.613,241.771 L 400.803,243.307 L 399.048,244.788 L 397.292,246.379 L 395.536,247.915 L 392.135,251.152 L 388.733,254.443 L 385.332,257.735 L 369.752,270.187 L 365.857,271.723 L 362.236,273.313 L 358.78,274.849 L 355.544,276.44 L 352.471,278.031 L 351.045,278.853 L 349.619,279.621 L 346.985,281.268 L 345.724,282.091 L 344.516,282.913 L 343.639,283.407 L 342.761,283.901 L 341.883,284.285 L 340.951,284.613 L 340.017,284.888 L 339.085,285.108 L 338.097,285.217 L 337.165,285.327 L 336.177,285.381 L 335.191,285.381 L 334.203,285.327 L 333.16,285.272 L 331.131,284.997 L 329.101,284.669 L 327.016,284.229 L 324.987,283.791 L 322.901,283.352 L 320.872,282.913 L 318.841,282.529 L 316.867,282.255 L 315.88,282.2 L 314.892,282.145 L 313.959,282.145 L 313.027,282.145 L 309.516,282.365 L 306.004,282.639 L 302.603,283.023 L 299.257,283.461 L 295.911,284.011 L 292.673,284.559 L 289.437,285.272 L 286.309,286.04 L 284.5,286.479 L 282.689,286.863 L 280.879,287.192 L 279.068,287.467 L 277.203,287.741 L 275.392,287.905 L 273.583,288.069 L 271.717,288.235 L 269.907,288.289 L 268.096,288.344 L 266.231,288.399 L 264.42,288.399 L 260.745,288.289 L 257.069,288.125 L 253.393,287.905 L 249.773,287.685 L 242.476,287.137 L 238.856,286.863 L 235.235,286.644 L 231.669,286.479 L 228.103,286.424 L 213.071,286.315 L 198.204,286.04 L 183.556,285.711 L 176.315,285.492 L 169.128,285.272 L 161.339,284.997 L 153.932,284.833 L 146.965,284.669 L 140.381,284.613 L 134.237,284.613 L 128.477,284.669 L 123.1,284.779 L 118.108,284.943 L 113.445,285.163 L 109.221,285.492 L 105.325,285.821 L 101.76,286.205 L 98.5227,286.589 L 95.6707,287.083 L 94.3533,287.357 L 93.092,287.631 L 91.94,287.905 L 90.8973,288.18 L 89.9107,288.509 L 88.9773,288.783 L 88.1547,289.112 L 87.3867,289.496 L 86.6733,289.825 L 86.0693,290.155 L 85.5213,290.539 L 85.028,290.923 L 84.644,291.307 L 84.3147,291.691 L 84.04,292.075 L 83.82,292.513 L 83.7107,292.952 L 83.656,293.391 L 83.656,293.829 L 83.7107,294.268 L 83.876,294.708 L 84.04,295.201 L 84.3147,295.64 L 84.644,296.133 L 85.028,296.628 L 85.4667,297.121 L 85.96,297.669 L 86.5093,298.164 L 87.112,298.657 L 87.7707,299.205 L 89.252,300.303 L 90.952,301.4 L 92.872,302.497 L 93.8053,303.045 L 94.792,303.429 L 95.7253,303.813 L 96.768,304.143 L 97.7547,304.417 L 98.7427,304.692 L 100.772,305.131 L 102.803,305.515 L 104.723,305.953 L 105.709,306.172 L 106.643,306.447 L 107.575,306.776 L 108.453,307.105 L 109.989,307.819 L 111.525,308.641 L 113.007,309.409 L 114.432,310.287 L 115.804,311.219 L 117.121,312.207 L 118.383,313.195 L 119.589,314.291 L 122.113,316.651 L 124.747,319.009 L 127.38,321.313 L 130.068,323.617 L 132.811,325.865 L 135.608,328.115 L 138.461,330.309 L 141.424,332.449 L 142.467,333.217 L 143.619,333.875 L 144.825,334.533 L 146.032,335.136 L 148.556,336.344 L 151.079,337.551 L 152.341,338.153 L 153.548,338.812 L 154.7,339.525 L 155.852,340.293 L 156.895,341.116 L 157.937,342.048 L 158.376,342.543 L 158.869,343.036 L 159.308,343.584 L 159.692,344.133 L 161.612,346.876 L 163.532,349.619 L 165.508,352.307 L 167.537,354.995 L 169.567,357.683 L 171.597,360.316 L 173.681,362.893 L 175.821,365.472 L 177.961,367.941 L 180.155,370.409 L 182.404,372.877 L 184.653,375.237 L 186.903,377.54 L 189.207,379.789 L 191.567,382.039 L 193.98,384.179 L 196.393,386.208 L 198.808,388.237 L 201.276,390.157 L 203.8,391.968 L 206.379,393.779 L 208.957,395.424 L 211.535,397.015 L 214.224,398.551 L 216.857,399.923 L 219.6,401.239 L 222.343,402.445 L 223.715,403.049 L 225.14,403.597 L 226.567,404.091 L 227.939,404.585 L 229.365,405.024 L 230.791,405.463 L 232.272,405.847 L 233.699,406.231 L 235.18,406.56 L 236.607,406.889 L 237.045,406.944 L 237.649,406.999 L 239.185,407.053 L 243.573,407.163 L 246.152,407.273 L 248.949,407.383 L 250.431,407.547 L 251.857,407.657 L 253.284,407.821 L 254.765,408.041 L 257.728,408.535 L 260.525,409.083 L 262.995,409.577 L 265.079,410.125 L 266.724,410.509 L 268.371,410.893 L 270.071,411.168 L 271.717,411.441 L 273.417,411.661 L 275.064,411.825 L 278.409,412.045 L 280.275,412.155 L 282.195,412.209 L 284.06,412.209 L 285.925,412.209 L 287.791,412.1 L 289.656,411.991 L 291.521,411.881 L 293.387,411.661 L 295.636,411.497 L 297.885,411.387 L 300.135,411.387 L 302.329,411.497 L 304.524,411.661 L 306.717,411.881 L 308.912,412.209 L 311.052,412.649 L 313.247,413.088 L 315.385,413.636 L 317.525,414.24 L 319.609,414.897 L 321.749,415.556 L 323.835,416.324 L 325.919,417.147 L 328.004,417.969 L 329.869,418.683 L 331.735,419.341 L 333.599,419.944 L 335.52,420.493 L 339.36,421.48 L 343.145,422.468 L 346.876,423.4 L 350.551,424.333 L 354.281,425.156 L 357.957,425.979 L 365.419,427.515 L 372.824,428.941 L 373.703,429.16 L 374.58,429.38 L 375.457,429.6 L 376.391,429.873 L 378.091,430.532 L 379.847,431.191 L 379.847,431.191 L 379.847,431.191 L 379.901,431.245 L 380.011,431.3 L 380.56,431.629 L 382.48,432.727 L 385.388,434.317 L 389.008,436.237 L 390.928,437.224 L 393.013,438.212 L 395.097,439.199 L 397.183,440.187 L 399.267,441.064 L 401.297,441.832 L 403.217,442.545 L 405.028,443.095 L 406.508,443.752 L 408.044,444.411 L 409.581,445.069 L 411.117,445.672 L 414.353,446.879 L 417.645,448.031 L 420.992,449.128 L 424.448,450.171 L 427.959,451.157 L 431.58,452.145 L 435.145,453.077 L 438.821,454.011 L 446.172,455.821 L 453.469,457.631 L 457.144,458.564 L 460.765,459.551 L 462.247,459.716 L 463.728,459.935 L 465.209,460.264 L 466.691,460.539 L 468.227,460.923 L 469.763,461.307 L 472.889,462.129 L 476.072,463.061 L 479.417,464.049 L 482.875,465.036 L 486.44,466.024 L 490.171,467.012 L 492.145,467.505 L 494.12,467.944 L 496.151,468.383 L 498.235,468.767 L 500.375,469.151 L 502.624,469.48 L 504.873,469.755 L 507.177,470.028 L 509.591,470.248 L 512.005,470.412 L 514.528,470.577 L 517.161,470.632 L 519.795,470.632 L 522.539,470.632 L 526.159,470.687 Z "/>
	</g>
	<g id="Brown" i:layer="yes">
		<path id="dp_path002" fill="#a67c51" fill-rule="evenodd" d="M 520.617,610.187 L 522.209,610.077 L 523.691,609.912 L 525.116,609.639 L 526.488,609.309 L 527.147,609.089 L 527.804,608.815 L 528.408,608.541 L 529.067,608.267 L 529.615,607.937 L 530.219,607.553 L 530.767,607.169 L 531.261,606.731 L 531.755,606.292 L 532.248,605.799 L 532.743,605.304 L 533.181,604.756 L 533.565,604.152 L 533.949,603.549 L 534.333,602.891 L 534.717,602.232 L 534.991,601.52 L 535.32,600.752 L 535.595,599.928 L 535.815,599.105 L 536.033,598.228 L 536.253,597.351 L 536.417,596.417 L 536.583,595.431 L 536.747,594.113 L 536.967,592.688 L 537.24,591.261 L 537.515,589.944 L 537.789,588.848 L 538.064,587.969 L 538.228,587.696 L 538.337,587.531 L 538.448,587.476 L 538.503,587.476 L 538.503,587.531 L 539.655,587.257 L 540.752,586.983 L 541.904,586.708 L 543.056,586.544 L 544.263,586.324 L 545.415,586.16 L 546.676,586.049 L 547.884,585.94 L 550.407,585.776 L 552.985,585.776 L 555.619,585.776 L 558.307,585.94 L 559.184,585.995 L 560.281,586.16 L 562.971,586.599 L 566.316,587.201 L 570.157,587.969 L 574.436,588.793 L 579.044,589.671 L 583.927,590.493 L 588.973,591.316 L 591.552,591.7 L 594.076,592.029 L 596.655,592.359 L 599.177,592.577 L 601.701,592.797 L 604.171,592.961 L 606.584,593.072 L 608.943,593.127 L 611.247,593.127 L 613.441,593.016 L 615.527,592.797 L 617.501,592.523 L 619.367,592.193 L 620.244,591.975 L 621.121,591.7 L 621.889,591.48 L 622.713,591.152 L 623.425,590.823 L 624.139,590.493 L 626.115,589.451 L 628.089,588.409 L 630.064,587.476 L 631.984,586.544 L 633.849,585.665 L 635.715,584.843 L 639.336,583.307 L 642.847,581.936 L 646.303,580.673 L 649.595,579.521 L 652.776,578.48 L 655.903,577.492 L 658.976,576.56 L 664.791,574.804 L 667.588,573.927 L 670.387,573.049 L 673.075,572.171 L 675.708,571.184 L 678.287,570.196 L 680.809,569.044 L 682.072,568.441 L 683.333,567.837 L 684.54,567.179 L 685.803,566.521 L 687.009,565.753 L 688.216,565.04 L 689.423,564.217 L 690.629,563.395 L 691.837,562.516 L 693.044,561.584 L 694.251,560.596 L 695.403,559.555 L 696.609,558.512 L 697.816,557.36 L 698.968,556.153 L 700.176,554.892 L 701.383,553.629 L 702.535,552.204 L 703.741,550.777 L 704.948,549.296 L 706.1,547.705 L 707.307,546.06 L 708.515,544.304 L 709.721,542.493 L 710.983,540.629 L 712.189,538.653 L 713.397,536.624 L 714.659,534.485 L 715.591,532.839 L 716.524,531.248 L 718.389,528.287 L 720.144,525.543 L 721.9,522.965 L 723.491,520.496 L 725.027,518.137 L 726.453,515.888 L 727.112,514.736 L 727.716,513.584 L 728.264,512.488 L 728.812,511.336 L 729.361,510.184 L 729.8,509.032 L 730.239,507.824 L 730.568,506.617 L 730.897,505.411 L 731.172,504.149 L 731.391,502.833 L 731.556,501.461 L 731.665,500.089 L 731.72,498.664 L 731.72,497.128 L 731.665,495.592 L 731.556,493.945 L 731.391,492.245 L 730.568,486.101 L 730.129,483.195 L 729.691,480.396 L 729.252,477.599 L 728.757,474.965 L 728.209,472.443 L 727.605,469.973 L 726.947,467.56 L 726.235,465.311 L 725.851,464.213 L 725.411,463.116 L 724.972,462.075 L 724.533,461.032 L 724.04,460.045 L 723.545,459.057 L 723.052,458.125 L 722.504,457.192 L 721.9,456.26 L 721.297,455.381 L 720.693,454.504 L 720.035,453.681 L 719.321,452.913 L 718.608,452.091 L 717.84,451.377 L 717.072,450.609 L 716.249,449.951 L 715.372,449.237 L 714.495,448.58 L 713.507,447.976 L 712.573,447.373 L 711.532,446.824 L 710.489,446.276 L 709.392,445.727 L 708.24,445.233 L 707.088,444.795 L 705.827,444.356 L 704.564,443.972 L 703.248,443.588 L 701.876,443.204 L 700.504,442.875 L 699.024,442.6 L 697.488,442.327 L 695.951,442.052 L 694.305,441.832 L 692.66,441.668 L 690.904,441.503 L 689.148,441.339 L 687.339,441.229 L 685.419,441.175 L 683.443,441.119 L 681.468,441.119 L 679.384,441.119 L 677.244,441.119 L 673.513,441.284 L 669.783,441.448 L 665.997,441.723 L 662.212,442.052 L 658.427,442.436 L 654.641,442.875 L 650.801,443.368 L 646.961,443.972 L 643.121,444.575 L 639.225,445.288 L 635.331,446.056 L 631.436,446.879 L 627.54,447.701 L 623.591,448.635 L 619.64,449.621 L 615.691,450.609 L 611.137,451.761 L 606.529,452.859 L 601.865,453.845 L 597.203,454.779 L 587.876,456.644 L 583.159,457.576 L 578.385,458.509 L 573.668,459.551 L 568.895,460.593 L 564.177,461.8 L 561.763,462.404 L 559.404,463.061 L 556.991,463.775 L 554.631,464.488 L 552.217,465.256 L 549.859,466.079 L 547.444,466.956 L 545.031,467.835 L 542.672,468.767 L 540.257,469.809 L 540.477,469.041 L 540.641,468.273 L 540.752,467.56 L 540.807,466.901 L 540.861,466.244 L 540.807,465.64 L 540.752,465.092 L 540.641,464.543 L 540.477,463.995 L 540.313,463.5 L 540.039,463.061 L 539.819,462.623 L 539.489,462.184 L 539.16,461.8 L 538.776,461.416 L 538.337,461.087 L 537.899,460.757 L 537.405,460.484 L 536.912,460.209 L 536.363,459.935 L 535.815,459.716 L 535.211,459.496 L 533.949,459.167 L 532.577,458.837 L 531.151,458.619 L 529.615,458.453 L 528.024,458.344 L 526.379,458.289 L 524.677,458.289 L 522.923,458.289 L 521.167,458.344 L 517.6,458.564 L 513.98,458.893 L 507.012,459.496 L 503.831,459.771 L 500.868,459.935 L 495.712,460.155 L 491.048,460.319 L 486.715,460.429 L 482.764,460.429 L 479.033,460.373 L 477.224,460.264 L 475.523,460.155 L 473.767,460.045 L 472.067,459.88 L 470.421,459.716 L 468.775,459.496 L 467.075,459.221 L 465.428,458.948 L 463.728,458.619 L 461.972,458.235 L 460.217,457.796 L 458.407,457.357 L 456.541,456.863 L 454.621,456.315 L 450.561,455.053 L 446.172,453.627 L 441.4,451.981 L 436.133,450.116 L 433.829,449.348 L 431.525,448.635 L 429.111,447.976 L 426.643,447.317 L 424.064,446.769 L 421.485,446.221 L 418.907,445.783 L 416.219,445.288 L 413.531,444.849 L 410.843,444.465 L 405.356,443.697 L 394.495,442.327 L 392.848,442.161 L 391.148,442.107 L 389.501,442.107 L 387.747,442.216 L 386.045,442.271 L 384.291,442.436 L 380.724,442.711 L 378.913,442.765 L 377.104,442.82 L 375.348,442.82 L 373.537,442.711 L 372.605,442.6 L 371.727,442.491 L 370.795,442.381 L 369.917,442.161 L 369.039,441.997 L 368.107,441.723 L 367.228,441.448 L 366.351,441.119 L 363.937,440.241 L 361.579,439.419 L 359.219,438.651 L 356.86,437.992 L 354.556,437.444 L 353.404,437.169 L 352.252,436.951 L 351.155,436.785 L 350.003,436.676 L 348.905,436.567 L 347.808,436.511 L 346.711,436.456 L 345.613,436.511 L 344.572,436.567 L 343.529,436.676 L 342.432,436.84 L 341.444,437.06 L 340.401,437.335 L 339.415,437.663 L 338.372,437.992 L 337.384,438.431 L 336.452,438.925 L 335.464,439.473 L 334.532,440.132 L 333.655,440.791 L 332.721,441.559 L 331.844,442.381 L 330.967,443.259 L 330.143,444.247 L 329.265,445.288 L 328.497,446.385 L 327.675,447.592 L 326.907,448.909 L 326.139,450.225 L 325.425,451.707 L 324.712,453.243 L 323.999,454.833 L 323.34,456.589 L 322.683,458.399 L 322.079,460.264 L 321.475,462.293 L 320.872,464.379 L 320.323,466.572 L 319.829,468.876 L 319.281,471.236 L 318.841,473.759 L 318.403,476.392 L 317.964,479.08 L 317.58,481.932 L 317.196,484.895 L 316.867,487.912 L 316.537,491.093 L 316.264,494.385 L 315.989,497.841 L 315.769,501.352 L 315.551,505.027 L 315.385,508.812 L 315.276,512.761 L 315.167,516.821 L 315.112,518.247 L 315.167,519.673 L 315.221,521.1 L 315.385,522.471 L 315.605,523.897 L 315.88,525.324 L 316.153,526.695 L 316.592,528.121 L 317.032,529.493 L 317.525,530.864 L 318.073,532.291 L 318.677,533.661 L 319.391,534.979 L 320.104,536.349 L 320.872,537.667 L 321.749,539.037 L 322.627,540.355 L 323.615,541.671 L 324.603,542.933 L 325.7,544.249 L 326.796,545.511 L 328.004,546.772 L 329.211,548.035 L 330.527,549.296 L 331.844,550.503 L 333.271,551.709 L 334.696,552.916 L 336.177,554.124 L 337.769,555.276 L 339.36,556.428 L 341.005,557.524 L 342.707,558.676 L 344.461,559.773 L 346.272,560.816 L 348.137,561.913 L 350.057,562.955 L 352.032,563.943 L 354.063,564.985 L 356.092,565.972 L 358.177,566.905 L 360.371,567.837 L 362.565,568.771 L 364.815,569.703 L 367.119,570.525 L 369.423,571.403 L 371.837,572.227 L 374.251,573.049 L 376.775,573.817 L 379.297,574.585 L 381.876,575.297 L 384.455,576.011 L 387.143,576.669 L 389.831,577.328 L 392.575,577.985 L 395.372,578.589 L 398.225,579.137 L 401.077,579.687 L 404.04,580.18 L 407.003,580.673 L 409.965,581.113 L 413.037,581.552 L 416.109,581.936 L 419.236,582.32 L 422.419,582.649 L 425.107,582.923 L 427.795,583.252 L 430.373,583.691 L 432.951,584.129 L 435.475,584.624 L 437.888,585.172 L 440.303,585.776 L 442.716,586.433 L 444.527,586.983 L 446.337,587.585 L 448.037,588.244 L 449.793,589.012 L 451.493,589.78 L 453.14,590.548 L 456.432,592.139 L 459.723,593.729 L 461.313,594.497 L 462.96,595.156 L 464.605,595.815 L 466.252,596.417 L 467.952,596.912 L 469.653,597.351 L 472.725,598.119 L 475.907,598.996 L 479.144,599.928 L 482.435,600.971 L 489.128,603.111 L 495.876,605.249 L 499.223,606.292 L 502.515,607.224 L 505.805,608.103 L 508.988,608.815 L 510.524,609.144 L 512.06,609.419 L 513.541,609.693 L 515.023,609.857 L 516.504,610.023 L 517.929,610.132 L 519.301,610.187 Z "/>
		<path id="dp_path003" fill="#8c6138" fill-rule="evenodd" d="M 497.357,418.135 L 497.851,417.257 L 498.4,416.379 L 498.948,415.556 L 499.552,414.733 L 500.155,413.965 L 500.813,413.252 L 501.472,412.593 L 502.185,411.991 L 502.953,411.387 L 503.721,410.893 L 504.489,410.4 L 505.367,409.961 L 506.244,409.577 L 507.177,409.303 L 508.109,409.028 L 509.097,408.864 L 510.908,408.589 L 512.663,408.369 L 514.473,408.151 L 516.229,407.985 L 518.04,407.876 L 519.795,407.767 L 521.605,407.712 L 523.361,407.657 L 525.116,407.712 L 526.927,407.767 L 528.683,407.821 L 530.437,407.931 L 532.248,408.151 L 534.004,408.315 L 535.815,408.589 L 537.569,408.864 L 538.612,409.083 L 539.6,409.412 L 540.532,409.741 L 541.409,410.125 L 542.288,410.619 L 543.056,411.113 L 543.824,411.661 L 544.537,412.265 L 545.251,412.923 L 545.908,413.581 L 546.512,414.24 L 547.116,414.953 L 548.268,416.433 L 549.42,417.969 L 547.609,417.092 L 545.853,416.215 L 544.099,415.447 L 542.343,414.733 L 540.641,414.02 L 538.887,413.417 L 537.185,412.868 L 535.485,412.375 L 533.784,411.936 L 532.084,411.552 L 530.383,411.223 L 528.737,410.948 L 527.036,410.729 L 525.391,410.619 L 523.745,410.509 L 522.153,410.455 L 520.508,410.509 L 518.917,410.619 L 517.272,410.729 L 515.68,410.948 L 514.089,411.223 L 512.553,411.552 L 510.963,411.936 L 509.427,412.375 L 507.891,412.868 L 506.355,413.472 L 504.819,414.075 L 503.283,414.788 L 501.801,415.501 L 500.32,416.324 L 498.839,417.201 Z "/>
		<path id="dp_path004" fill="#a67c51" fill-rule="evenodd" d="M 938.817,291.691 L 937.72,291.307 L 936.623,290.977 L 935.416,290.703 L 934.155,290.429 L 932.893,290.209 L 931.521,290.045 L 930.095,289.88 L 928.668,289.771 L 927.132,289.716 L 925.596,289.661 L 923.951,289.661 L 922.304,289.661 L 918.903,289.771 L 915.337,290.045 L 911.661,290.319 L 907.876,290.757 L 903.927,291.196 L 899.976,291.745 L 895.917,292.293 L 891.803,292.897 L 883.464,294.213 L 875.893,295.311 L 868.377,296.353 L 860.807,297.285 L 853.236,298.108 L 845.555,298.821 L 837.82,299.48 L 829.975,299.973 L 822.02,300.412 L 817.905,300.632 L 813.845,300.907 L 809.787,301.236 L 805.781,301.62 L 801.777,302.059 L 797.772,302.497 L 793.877,302.991 L 789.927,303.54 L 786.032,304.143 L 782.137,304.747 L 778.296,305.404 L 774.456,306.117 L 770.616,306.831 L 766.776,307.544 L 759.205,309.08 L 751.58,310.725 L 744.064,312.427 L 728.977,315.827 L 721.407,317.583 L 713.781,319.283 L 706.155,320.984 L 698.42,322.575 L 697.707,322.793 L 697.048,323.068 L 696.391,323.397 L 695.841,323.781 L 695.293,324.275 L 694.799,324.824 L 694.305,325.427 L 693.867,326.031 L 693.483,326.744 L 693.099,327.457 L 692.715,328.28 L 692.385,329.103 L 691.781,330.803 L 691.233,332.668 L 690.081,336.508 L 689.477,338.537 L 688.875,340.457 L 688.491,341.445 L 688.161,342.377 L 687.723,343.311 L 687.339,344.243 L 686.844,345.12 L 686.351,345.999 L 685.857,346.821 L 685.308,347.589 L 686.021,346.985 L 686.735,346.328 L 687.448,345.615 L 688.107,344.901 L 688.764,344.188 L 689.368,343.42 L 690.465,341.884 L 691.508,340.348 L 692.549,338.757 L 694.415,335.631 L 695.293,334.095 L 696.225,332.668 L 697.159,331.352 L 697.652,330.748 L 698.145,330.145 L 698.695,329.596 L 699.243,329.048 L 699.792,328.553 L 700.34,328.115 L 700.944,327.731 L 701.547,327.401 L 702.205,327.128 L 702.919,326.853 L 707.143,325.647 L 711.971,324.329 L 717.347,322.959 L 723.327,321.477 L 729.745,319.996 L 736.657,318.46 L 743.899,316.924 L 751.58,315.388 L 759.535,313.907 L 767.819,312.427 L 776.267,311 L 784.989,309.628 L 789.379,308.971 L 793.767,308.367 L 798.265,307.763 L 802.709,307.215 L 807.208,306.667 L 811.707,306.172 L 816.26,305.679 L 820.759,305.24 L 824.599,304.911 L 828.439,304.581 L 836.119,304.033 L 843.8,303.484 L 847.695,303.156 L 851.589,302.827 L 855.485,302.443 L 859.435,302.004 L 863.385,301.564 L 867.389,300.961 L 871.449,300.357 L 875.509,299.644 L 879.624,298.767 L 883.848,297.835 L 887.468,297.012 L 891.089,296.244 L 894.655,295.476 L 898.221,294.817 L 901.787,294.213 L 905.297,293.665 L 908.809,293.172 L 912.265,292.732 L 915.721,292.404 L 919.123,292.075 L 922.469,291.855 L 925.816,291.691 L 929.107,291.58 L 932.399,291.525 L 935.636,291.58 Z "/>
		<path id="dp_path005" fill="#a67c51" fill-rule="evenodd" d="M 107.959,291.691 L 109.001,291.307 L 110.153,290.977 L 111.305,290.703 L 112.568,290.429 L 113.884,290.209 L 115.256,290.045 L 116.627,289.88 L 118.108,289.771 L 119.644,289.716 L 121.18,289.661 L 122.772,289.661 L 124.417,289.661 L 127.819,289.771 L 131.384,290.045 L 135.115,290.319 L 138.9,290.757 L 142.796,291.196 L 146.8,291.745 L 150.86,292.293 L 154.975,292.897 L 163.313,294.213 L 170.829,295.311 L 178.4,296.353 L 185.916,297.285 L 193.541,298.108 L 201.221,298.821 L 205.061,299.151 L 208.957,299.48 L 216.747,299.973 L 224.701,300.412 L 228.816,300.632 L 232.931,300.907 L 236.991,301.236 L 240.995,301.62 L 245,302.059 L 248.949,302.497 L 252.9,302.991 L 256.849,303.54 L 260.745,304.143 L 264.585,304.747 L 268.48,305.404 L 272.32,306.117 L 276.16,306.831 L 279.945,307.544 L 287.572,309.08 L 295.143,310.725 L 302.713,312.427 L 317.8,315.827 L 325.371,317.583 L 332.996,319.283 L 340.621,320.984 L 348.301,322.575 L 349.069,322.793 L 349.728,323.068 L 350.332,323.397 L 350.935,323.781 L 351.484,324.275 L 351.977,324.824 L 352.416,325.427 L 352.855,326.031 L 353.295,326.744 L 353.679,327.457 L 354.007,328.28 L 354.336,329.103 L 354.995,330.803 L 355.544,332.668 L 356.696,336.508 L 357.244,338.537 L 357.903,340.457 L 358.616,342.377 L 359,343.311 L 359.439,344.243 L 359.877,345.12 L 360.371,345.999 L 360.92,346.821 L 361.468,347.589 L 360.7,346.985 L 359.987,346.328 L 359.329,345.615 L 358.671,344.901 L 358.012,344.188 L 357.408,343.42 L 356.256,341.884 L 355.215,340.348 L 354.227,338.757 L 352.361,335.631 L 351.429,334.095 L 350.496,332.668 L 349.564,331.352 L 349.069,330.748 L 348.576,330.145 L 348.083,329.596 L 347.533,329.048 L 346.985,328.553 L 346.436,328.115 L 345.833,327.731 L 345.175,327.401 L 344.516,327.128 L 343.859,326.853 L 339.633,325.647 L 334.807,324.329 L 329.375,322.959 L 323.451,321.477 L 316.976,319.996 L 310.119,318.46 L 302.823,316.924 L 295.197,315.388 L 287.188,313.907 L 278.959,312.427 L 270.455,311 L 261.787,309.628 L 257.399,308.971 L 252.955,308.367 L 248.511,307.763 L 244.012,307.215 L 239.513,306.667 L 235.016,306.172 L 230.517,305.679 L 226.019,305.24 L 222.179,304.911 L 218.337,304.581 L 210.657,304.033 L 202.923,303.484 L 199.081,303.156 L 195.187,302.827 L 191.292,302.443 L 187.341,302.004 L 183.392,301.564 L 179.387,300.961 L 175.328,300.357 L 171.268,299.644 L 167.099,298.767 L 162.929,297.835 L 159.308,297.012 L 155.688,296.244 L 152.067,295.476 L 148.501,294.817 L 144.989,294.213 L 141.424,293.665 L 137.968,293.172 L 134.512,292.732 L 131.055,292.404 L 127.653,292.075 L 124.308,291.855 L 120.961,291.691 L 117.615,291.58 L 114.377,291.525 L 111.141,291.58 Z "/>
		<path id="dp_path006" fill="#a67c51" fill-rule="evenodd" d="M 651.733,326.963 L 651.899,328.005 L 652.117,328.883 L 652.392,329.541 L 652.501,329.816 L 652.667,330.035 L 652.831,330.2 L 652.941,330.309 L 653.105,330.364 L 653.269,330.419 L 653.435,330.419 L 653.599,330.364 L 653.764,330.255 L 653.983,330.145 L 654.148,329.925 L 654.312,329.705 L 654.587,329.157 L 654.916,328.389 L 655.191,327.512 L 655.409,326.415 L 655.629,325.208 L 655.793,323.836 L 655.903,322.3 L 655.959,319.832 L 655.959,317.419 L 655.848,315.004 L 655.629,312.645 L 655.3,310.396 L 654.916,308.147 L 654.423,305.953 L 653.819,303.813 L 653.16,301.729 L 652.392,299.7 L 651.569,297.724 L 650.692,295.804 L 649.649,293.94 L 648.607,292.129 L 647.455,290.373 L 646.248,288.673 L 644.931,287.028 L 643.56,285.492 L 642.133,283.956 L 640.597,282.529 L 639.061,281.157 L 637.416,279.841 L 635.715,278.635 L 633.959,277.428 L 632.093,276.331 L 630.229,275.343 L 628.308,274.356 L 626.333,273.479 L 624.249,272.655 L 622.164,271.943 L 620.024,271.284 L 617.831,270.735 L 616.349,270.407 L 614.868,270.132 L 613.387,269.912 L 611.851,269.748 L 610.369,269.583 L 608.833,269.528 L 607.297,269.473 L 605.707,269.528 L 604.171,269.528 L 602.579,269.639 L 600.988,269.748 L 599.397,269.912 L 596.105,270.241 L 592.813,270.735 L 589.468,271.284 L 586.067,271.887 L 579.044,273.095 L 575.423,273.752 L 571.748,274.356 L 568.017,274.904 L 564.232,275.343 L 563.299,275.508 L 562.421,275.672 L 561.489,275.892 L 560.556,276.167 L 559.679,276.44 L 558.745,276.824 L 557.868,277.208 L 556.936,277.647 L 556.057,278.141 L 555.18,278.689 L 554.303,279.237 L 553.369,279.841 L 552.492,280.5 L 551.669,281.213 L 550.791,281.925 L 549.968,282.693 L 549.091,283.461 L 548.268,284.34 L 547.444,285.217 L 546.621,286.095 L 545.853,287.083 L 545.085,288.069 L 544.317,289.057 L 543.549,290.1 L 542.781,291.196 L 542.068,292.293 L 541.355,293.445 L 540.697,294.652 L 539.984,295.86 L 539.325,297.067 L 538.721,298.328 L 538.119,299.644 L 538.887,299.205 L 539.709,298.712 L 540.532,298.219 L 541.3,297.615 L 542.836,296.463 L 544.372,295.147 L 545.853,293.829 L 547.335,292.513 L 548.707,291.196 L 550.077,289.935 L 551.449,288.837 L 552.108,288.289 L 552.711,287.851 L 553.369,287.412 L 553.973,287.028 L 554.576,286.699 L 555.18,286.424 L 555.783,286.205 L 556.332,286.095 L 556.88,286.04 L 557.484,286.04 L 557.977,286.149 L 558.527,286.369 L 559.075,286.644 L 559.569,287.028 L 558.636,288.344 L 557.704,289.716 L 556.825,291.032 L 556.003,292.459 L 555.18,293.829 L 554.412,295.256 L 553.699,296.683 L 553.04,298.108 L 552.437,299.535 L 551.833,301.016 L 551.34,302.443 L 550.901,303.924 L 550.461,305.404 L 550.133,306.94 L 549.859,308.421 L 549.639,309.957 L 551.285,307.599 L 552.985,305.349 L 554.687,303.211 L 556.387,301.125 L 558.143,299.151 L 559.953,297.285 L 561.708,295.531 L 563.519,293.829 L 565.384,292.239 L 567.195,290.703 L 569.06,289.277 L 570.925,287.96 L 572.845,286.699 L 574.711,285.547 L 576.631,284.449 L 578.551,283.461 L 580.471,282.529 L 582.391,281.707 L 584.365,280.939 L 586.285,280.28 L 588.205,279.677 L 590.125,279.128 L 592.101,278.689 L 594.021,278.305 L 595.941,278.031 L 597.861,277.812 L 599.781,277.647 L 601.701,277.537 L 603.621,277.537 L 605.541,277.592 L 607.407,277.701 L 609.272,277.921 L 611.247,278.196 L 613.167,278.525 L 615.032,278.964 L 616.952,279.457 L 618.763,280.061 L 620.628,280.719 L 622.384,281.487 L 624.139,282.309 L 625.895,283.243 L 627.596,284.229 L 629.241,285.272 L 630.832,286.424 L 632.423,287.685 L 633.959,289.003 L 635.44,290.429 L 636.867,291.909 L 638.239,293.445 L 639.609,295.092 L 640.872,296.847 L 642.079,298.657 L 643.285,300.577 L 644.383,302.552 L 645.425,304.581 L 646.412,306.721 L 647.345,308.971 L 648.168,311.275 L 648.936,313.688 L 649.649,316.156 L 650.308,318.735 L 650.856,321.368 L 651.349,324.111 Z "/>
		<path id="dp_path007" fill="#a67c51" fill-rule="evenodd" d="M 397.621,326.963 L 397.456,328.005 L 397.237,328.883 L 397.017,329.541 L 396.853,329.816 L 396.688,330.035 L 396.579,330.2 L 396.415,330.309 L 396.249,330.364 L 396.085,330.419 L 395.92,330.419 L 395.756,330.364 L 395.592,330.255 L 395.427,330.145 L 395.263,329.925 L 395.097,329.705 L 394.768,329.157 L 394.439,328.389 L 394.165,327.512 L 393.945,326.415 L 393.727,325.208 L 393.561,323.836 L 393.452,322.3 L 393.397,319.832 L 393.397,317.419 L 393.561,315.004 L 393.781,312.645 L 394.055,310.396 L 394.495,308.147 L 394.933,305.953 L 395.536,303.813 L 396.195,301.729 L 396.963,299.7 L 397.785,297.724 L 398.719,295.804 L 399.705,293.94 L 400.748,292.129 L 401.9,290.373 L 403.163,288.673 L 404.424,287.028 L 405.796,285.492 L 407.276,283.956 L 408.757,282.529 L 410.349,281.157 L 411.995,279.841 L 413.695,278.635 L 415.451,277.428 L 417.261,276.331 L 419.127,275.343 L 421.101,274.356 L 423.076,273.479 L 425.107,272.655 L 427.191,271.943 L 429.331,271.284 L 431.525,270.735 L 433.007,270.407 L 434.487,270.132 L 436.024,269.912 L 437.504,269.748 L 439.041,269.583 L 440.577,269.528 L 442.113,269.473 L 443.649,269.528 L 445.24,269.528 L 446.776,269.639 L 448.367,269.748 L 450.013,269.912 L 453.249,270.241 L 456.541,270.735 L 459.888,271.284 L 463.344,271.887 L 470.365,273.095 L 473.932,273.752 L 477.608,274.356 L 481.337,274.904 L 485.179,275.343 L 486.056,275.508 L 486.988,275.672 L 487.867,275.892 L 488.799,276.167 L 489.732,276.44 L 490.609,276.824 L 491.541,277.208 L 492.42,277.647 L 493.297,278.141 L 494.231,278.689 L 495.108,279.237 L 495.985,279.841 L 496.864,280.5 L 497.741,281.213 L 498.564,281.925 L 499.441,282.693 L 500.265,283.461 L 501.088,284.34 L 501.911,285.217 L 502.733,286.095 L 503.501,287.083 L 504.324,288.069 L 505.092,289.057 L 505.805,290.1 L 506.573,291.196 L 507.287,292.293 L 508,293.445 L 508.713,294.652 L 509.372,295.86 L 510.029,297.067 L 510.688,298.328 L 511.292,299.644 L 510.469,299.205 L 509.645,298.712 L 508.877,298.219 L 508.055,297.615 L 506.519,296.463 L 504.983,295.147 L 503.501,293.829 L 502.075,292.513 L 500.649,291.196 L 499.277,289.935 L 497.96,288.837 L 497.303,288.289 L 496.644,287.851 L 496.04,287.412 L 495.383,287.028 L 494.779,286.699 L 494.175,286.424 L 493.627,286.205 L 493.023,286.095 L 492.475,286.04 L 491.925,286.04 L 491.377,286.149 L 490.829,286.369 L 490.335,286.644 L 489.841,287.028 L 490.773,288.344 L 491.652,289.716 L 492.529,291.032 L 493.407,292.459 L 494.175,293.829 L 494.943,295.256 L 495.656,296.683 L 496.315,298.108 L 496.973,299.535 L 497.521,301.016 L 498.016,302.443 L 498.509,303.924 L 498.893,305.404 L 499.223,306.94 L 499.497,308.421 L 499.716,309.957 L 498.071,307.599 L 496.424,305.349 L 494.724,303.211 L 492.968,301.125 L 491.213,299.151 L 489.457,297.285 L 487.647,295.531 L 485.836,293.829 L 484.027,292.239 L 482.161,290.703 L 480.296,289.277 L 478.431,287.96 L 476.565,286.699 L 474.645,285.547 L 472.725,284.449 L 470.805,283.461 L 468.885,282.529 L 466.964,281.707 L 465.044,280.939 L 463.124,280.28 L 461.149,279.677 L 459.229,279.128 L 457.309,278.689 L 455.335,278.305 L 453.415,278.031 L 451.493,277.812 L 449.573,277.647 L 447.653,277.537 L 445.733,277.537 L 443.868,277.592 L 441.948,277.701 L 440.083,277.921 L 438.163,278.196 L 436.243,278.525 L 434.323,278.964 L 432.457,279.457 L 430.592,280.061 L 428.781,280.719 L 426.972,281.487 L 425.216,282.309 L 423.46,283.243 L 421.76,284.229 L 420.113,285.272 L 418.523,286.424 L 416.932,287.685 L 415.396,289.003 L 413.915,290.429 L 412.488,291.909 L 411.117,293.445 L 409.8,295.092 L 408.484,296.847 L 407.276,298.657 L 406.124,300.577 L 404.972,302.552 L 403.931,304.581 L 402.943,306.721 L 402.065,308.971 L 401.187,311.275 L 400.419,313.688 L 399.705,316.156 L 399.048,318.735 L 398.499,321.368 L 398.06,324.111 Z "/>
		<path id="dp_path008" fill="#a67c51" fill-rule="evenodd" d="M 665.943,293.995 L 665.284,291.909 L 664.516,289.935 L 663.693,287.96 L 662.816,286.095 L 661.937,284.229 L 660.951,282.42 L 659.908,280.719 L 658.811,279.019 L 657.604,277.373 L 656.397,275.837 L 655.08,274.301 L 653.709,272.82 L 652.283,271.448 L 650.747,270.077 L 649.211,268.815 L 647.564,267.553 L 645.809,266.401 L 643.999,265.304 L 642.133,264.263 L 640.213,263.275 L 638.184,262.343 L 636.044,261.464 L 633.849,260.696 L 631.6,259.928 L 629.241,259.271 L 626.772,258.667 L 624.249,258.119 L 621.671,257.624 L 618.983,257.185 L 616.184,256.856 L 613.277,256.583 L 610.315,256.363 L 609.547,256.363 L 608.779,256.308 L 608.011,256.253 L 607.243,256.144 L 606.529,256.033 L 605.761,255.924 L 604.993,255.704 L 604.225,255.54 L 602.744,255.047 L 601.208,254.443 L 599.727,253.729 L 598.191,252.907 L 596.709,252.029 L 595.173,250.987 L 593.692,249.889 L 592.156,248.683 L 590.62,247.421 L 589.139,245.995 L 587.603,244.513 L 586.067,242.977 L 588.26,244.404 L 590.509,245.831 L 591.661,246.489 L 592.869,247.201 L 594.185,247.86 L 595.557,248.464 L 596.984,249.067 L 598.575,249.671 L 600.275,250.219 L 602.085,250.768 L 604.06,251.261 L 606.2,251.7 L 608.504,252.139 L 610.973,252.523 L 614.319,252.688 L 617.556,252.961 L 620.683,253.291 L 623.645,253.729 L 626.553,254.224 L 627.924,254.552 L 629.296,254.827 L 631.929,255.54 L 634.453,256.253 L 636.867,257.076 L 639.171,258.008 L 640.268,258.503 L 641.311,258.996 L 642.408,259.489 L 643.449,260.039 L 644.437,260.587 L 645.425,261.136 L 646.357,261.739 L 647.291,262.343 L 648.168,262.945 L 649.045,263.604 L 649.924,264.263 L 650.747,264.92 L 651.569,265.633 L 652.337,266.292 L 653.819,267.773 L 655.245,269.255 L 655.903,270.077 L 656.561,270.845 L 657.768,272.491 L 658.92,274.191 L 659.963,275.947 L 660.896,277.757 L 661.828,279.567 L 662.596,281.487 L 663.364,283.461 L 664.023,285.492 L 664.627,287.521 L 665.12,289.661 L 665.559,291.8 Z "/>
		<path id="dp_path009" fill="#a67c51" fill-rule="evenodd" d="M 384.125,293.995 L 384.784,291.909 L 385.552,289.935 L 386.375,287.96 L 387.197,286.095 L 388.131,284.229 L 389.117,282.42 L 390.16,280.719 L 391.257,279.019 L 392.464,277.373 L 393.671,275.837 L 394.988,274.301 L 396.36,272.82 L 397.785,271.448 L 399.267,270.077 L 400.857,268.815 L 402.504,267.553 L 404.259,266.401 L 406.069,265.304 L 407.935,264.263 L 409.855,263.275 L 411.885,262.343 L 414.024,261.464 L 416.219,260.696 L 418.468,259.928 L 420.827,259.271 L 423.241,258.667 L 425.764,258.119 L 428.397,257.624 L 431.085,257.185 L 433.884,256.856 L 436.736,256.583 L 439.753,256.363 L 441.289,256.308 L 442.003,256.253 L 442.771,256.144 L 443.539,256.033 L 444.307,255.924 L 445.844,255.54 L 447.324,255.047 L 448.861,254.443 L 450.341,253.729 L 451.877,252.907 L 453.359,252.029 L 454.895,250.987 L 456.376,249.889 L 457.912,248.683 L 459.449,247.421 L 460.929,245.995 L 462.467,244.513 L 464.003,242.977 L 461.808,244.404 L 459.559,245.831 L 458.407,246.489 L 457.144,247.201 L 455.883,247.86 L 454.511,248.464 L 453.031,249.067 L 451.493,249.671 L 449.793,250.219 L 447.983,250.768 L 446.008,251.261 L 443.868,251.7 L 441.564,252.139 L 439.096,252.523 L 435.749,252.688 L 432.512,252.961 L 429.385,253.291 L 426.423,253.729 L 423.515,254.224 L 422.144,254.552 L 420.772,254.827 L 418.139,255.54 L 415.616,256.253 L 413.201,257.076 L 410.897,258.008 L 409.8,258.503 L 408.703,258.996 L 407.66,259.489 L 406.619,260.039 L 405.631,260.587 L 404.643,261.136 L 403.711,261.739 L 402.779,262.343 L 401.845,262.945 L 400.968,263.604 L 400.145,264.263 L 399.321,264.92 L 398.499,265.633 L 397.731,266.292 L 396.249,267.773 L 395.536,268.487 L 394.824,269.255 L 393.507,270.845 L 392.3,272.491 L 391.148,274.191 L 390.105,275.947 L 389.117,277.757 L 388.24,279.567 L 387.417,281.487 L 386.704,283.461 L 386.045,285.492 L 385.443,287.521 L 384.948,289.661 L 384.509,291.8 Z "/>
		<path id="dp_path010" fill="#a67c51" fill-rule="evenodd" d="M 471.299,248.848 L 473.109,247.641 L 474.864,246.489 L 476.675,245.447 L 478.431,244.459 L 480.131,243.527 L 481.887,242.649 L 483.587,241.881 L 485.343,241.113 L 487.044,240.455 L 488.744,239.851 L 490.389,239.357 L 492.091,238.864 L 493.736,238.48 L 495.383,238.096 L 497.028,237.821 L 498.673,237.601 L 500.32,237.437 L 501.911,237.328 L 503.501,237.273 L 505.147,237.273 L 506.684,237.328 L 508.275,237.492 L 509.865,237.657 L 511.401,237.876 L 512.992,238.151 L 514.528,238.48 L 516.064,238.919 L 517.6,239.357 L 519.081,239.851 L 520.617,240.4 L 522.099,241.003 L 523.635,241.607 L 525.227,240.893 L 526.763,240.235 L 528.299,239.632 L 529.835,239.083 L 531.316,238.589 L 532.797,238.151 L 534.223,237.767 L 535.704,237.437 L 537.076,237.163 L 538.503,236.944 L 539.873,236.724 L 541.245,236.615 L 542.561,236.505 L 543.879,236.449 L 545.195,236.449 L 546.512,236.449 L 547.773,236.505 L 549.036,236.615 L 550.297,236.779 L 551.504,236.944 L 552.711,237.163 L 553.919,237.383 L 555.125,237.657 L 556.277,237.985 L 557.429,238.315 L 558.581,238.644 L 559.733,239.083 L 560.831,239.467 L 563.08,240.4 L 565.219,241.387 L 566.975,242.209 L 568.731,243.143 L 570.431,244.075 L 572.132,245.063 L 573.832,246.105 L 575.479,247.147 L 578.769,249.232 L 575.917,248.025 L 573.175,246.928 L 570.541,245.94 L 567.963,245.008 L 565.493,244.185 L 563.135,243.472 L 560.885,242.813 L 558.636,242.265 L 557.155,241.936 L 555.673,241.607 L 554.303,241.387 L 552.876,241.168 L 551.559,241.057 L 550.243,240.948 L 548.98,240.839 L 547.773,240.839 L 546.621,240.839 L 545.469,240.948 L 544.372,241.003 L 543.275,241.168 L 542.288,241.387 L 541.3,241.607 L 540.313,241.881 L 539.38,242.209 L 538.503,242.593 L 537.624,242.977 L 536.801,243.417 L 536.033,243.911 L 535.265,244.459 L 534.552,245.008 L 533.895,245.611 L 533.181,246.269 L 532.577,246.928 L 531.973,247.696 L 531.425,248.464 L 530.877,249.232 L 530.328,250.109 L 529.889,250.987 L 529.396,251.864 L 528.956,252.852 L 528.572,253.84 L 528.188,254.881 L 527.86,255.924 L 527.531,257.076 L 527.201,258.228 L 526.927,259.38 L 526.652,260.587 L 526.433,261.848 L 526.213,263.165 L 526.049,264.481 L 525.72,267.224 L 525.5,270.132 L 525.336,273.149 L 525.227,276.331 L 525.227,279.621 L 525.281,283.077 L 525.391,286.644 L 525.555,290.319 L 525.775,294.159 L 525.995,298.108 L 526.324,302.168 L 526.379,302.607 L 526.324,303.045 L 526.268,303.429 L 526.213,303.759 L 526.049,304.033 L 525.94,304.308 L 525.775,304.527 L 525.611,304.692 L 525.391,304.801 L 525.171,304.856 L 524.952,304.911 L 524.732,304.911 L 524.513,304.911 L 524.293,304.856 L 524.075,304.747 L 523.855,304.636 L 523.58,304.417 L 523.361,304.143 L 523.196,303.868 L 523.087,303.595 L 522.977,303.265 L 522.923,302.936 L 522.867,302.332 L 522.977,294.817 L 523.087,287.467 L 523.141,283.845 L 523.141,280.28 L 523.087,276.824 L 522.977,273.423 L 522.757,270.132 L 522.539,266.951 L 522.373,265.415 L 522.153,263.933 L 521.935,262.452 L 521.715,261.025 L 521.441,259.6 L 521.112,258.228 L 520.783,256.912 L 520.399,255.649 L 520.015,254.388 L 519.576,253.181 L 519.081,252.029 L 518.533,250.932 L 517.984,249.889 L 517.381,248.848 L 516.723,247.915 L 516.009,246.983 L 515.241,246.16 L 514.473,245.337 L 513.596,244.624 L 512.719,243.911 L 511.731,243.307 L 510.743,242.759 L 509.645,242.265 L 508.548,241.825 L 507.341,241.441 L 506.08,241.113 L 504.763,240.893 L 503.392,240.729 L 501.965,240.673 L 500.429,240.619 L 498.839,240.673 L 497.192,240.839 L 495.492,241.057 L 493.681,241.332 L 491.816,241.716 L 489.841,242.155 L 487.812,242.649 L 485.727,243.307 L 483.532,244.02 L 481.283,244.788 L 478.924,245.665 L 476.456,246.653 L 473.932,247.696 Z "/>
	</g>
	<g id="Pink" i:layer="yes">
		<path id="dp_path011" fill="#fcd5ef" fill-rule="evenodd" d="M 381.053,421.755 L 379.956,420.493 L 378.913,419.287 L 377.927,418.025 L 376.939,416.763 L 376.061,415.556 L 375.128,414.295 L 374.305,413.088 L 373.483,411.825 L 372.715,410.619 L 371.947,409.357 L 371.288,408.151 L 370.575,406.889 L 369.972,405.681 L 369.368,404.42 L 368.82,403.159 L 368.271,401.952 L 367.777,400.691 L 367.284,399.483 L 366.844,398.221 L 366.46,397.015 L 366.076,395.753 L 365.748,394.547 L 365.419,393.284 L 365.144,392.077 L 364.924,390.816 L 364.705,389.555 L 364.485,388.348 L 364.321,387.085 L 364.211,385.879 L 364.101,384.617 L 364.047,383.411 L 363.992,382.148 L 363.279,380.064 L 362.675,377.924 L 362.127,375.785 L 361.633,373.645 L 361.195,371.452 L 360.809,369.257 L 360.481,367.063 L 360.207,364.813 L 359.987,362.62 L 359.877,360.371 L 359.768,358.067 L 359.768,355.817 L 359.768,353.513 L 359.877,351.209 L 359.987,348.851 L 360.207,346.492 L 359.548,345.888 L 358.889,345.176 L 358.287,344.517 L 357.737,343.804 L 356.64,342.377 L 355.599,340.896 L 354.611,339.416 L 353.733,337.88 L 351.977,334.972 L 351.1,333.545 L 350.221,332.229 L 349.289,331.023 L 348.851,330.419 L 348.357,329.871 L 347.863,329.377 L 347.369,328.883 L 346.82,328.444 L 346.272,328.06 L 345.724,327.676 L 345.12,327.347 L 344.516,327.073 L 343.859,326.853 L 339.633,325.647 L 334.807,324.329 L 329.375,322.959 L 323.451,321.477 L 316.976,319.996 L 310.119,318.46 L 302.823,316.924 L 295.197,315.388 L 287.188,313.907 L 278.959,312.427 L 270.455,311 L 261.787,309.628 L 257.399,308.971 L 252.955,308.367 L 248.511,307.763 L 244.012,307.215 L 239.513,306.667 L 235.016,306.172 L 230.517,305.679 L 226.019,305.24 L 222.179,304.911 L 218.337,304.581 L 210.657,304.033 L 202.923,303.484 L 199.081,303.156 L 195.187,302.827 L 191.292,302.443 L 187.341,302.004 L 183.392,301.564 L 179.387,300.961 L 175.328,300.357 L 171.268,299.644 L 167.099,298.767 L 162.929,297.835 L 159.583,297.067 L 156.236,296.353 L 152.889,295.64 L 149.599,295.036 L 146.307,294.433 L 143.015,293.884 L 139.779,293.445 L 136.596,293.007 L 133.36,292.623 L 130.232,292.293 L 127.051,292.02 L 123.979,291.855 L 120.907,291.691 L 117.833,291.58 L 114.816,291.525 L 111.799,291.58 L 113.116,292.513 L 114.597,293.665 L 116.133,294.927 L 117.724,296.353 L 119.425,297.835 L 121.125,299.425 L 122.827,301.071 L 124.527,302.716 L 127.819,306.008 L 130.781,309.135 L 132.097,310.561 L 133.249,311.877 L 134.292,313.084 L 135.115,314.072 L 135.828,314.949 L 136.487,315.772 L 137.2,316.485 L 137.857,317.144 L 138.516,317.803 L 139.175,318.405 L 140.547,319.448 L 141.917,320.435 L 143.289,321.423 L 146.361,323.452 L 148.007,324.604 L 149.817,325.976 L 151.792,327.567 L 152.835,328.499 L 153.877,329.432 L 155.029,330.529 L 156.236,331.681 L 157.443,332.943 L 158.76,334.313 L 160.076,335.74 L 161.503,337.331 L 162.984,339.087 L 164.52,340.896 L 166.549,343.365 L 168.58,345.724 L 170.555,348.028 L 172.584,350.277 L 174.56,352.471 L 176.48,354.611 L 178.455,356.695 L 180.375,358.725 L 182.295,360.645 L 184.215,362.565 L 186.135,364.429 L 188,366.185 L 189.865,367.941 L 191.731,369.587 L 193.596,371.232 L 195.461,372.823 L 197.272,374.359 L 199.081,375.785 L 200.892,377.212 L 202.703,378.637 L 204.513,379.955 L 206.268,381.216 L 208.024,382.423 L 209.78,383.629 L 211.535,384.781 L 213.291,385.879 L 215.047,386.921 L 216.747,387.908 L 218.503,388.896 L 220.203,389.828 L 221.904,390.707 L 223.604,391.584 L 225.251,392.352 L 226.951,393.12 L 228.597,393.888 L 230.297,394.547 L 231.943,395.204 L 233.589,395.863 L 235.235,396.411 L 236.825,397.015 L 238.472,397.508 L 240.117,398.003 L 241.708,398.441 L 243.355,398.88 L 246.536,399.648 L 249.717,400.307 L 252.9,400.855 L 256.027,401.348 L 259.153,401.677 L 262.281,401.952 L 265.408,402.116 L 268.48,402.227 L 271.607,402.281 L 274.68,402.281 L 278.793,402.227 L 282.853,402.227 L 286.804,402.336 L 290.699,402.5 L 294.484,402.665 L 298.215,402.939 L 301.835,403.268 L 305.401,403.652 L 308.912,404.036 L 312.368,404.531 L 315.715,405.024 L 319.061,405.572 L 322.353,406.176 L 325.589,406.833 L 328.827,407.492 L 331.953,408.205 L 335.136,408.919 L 338.208,409.687 L 341.335,410.509 L 344.407,411.332 L 350.496,413.033 L 356.64,414.788 L 362.731,416.653 L 368.929,418.519 L 375.184,420.439 L 381.603,422.359 Z "/>
		<path id="dp_path012" fill="#fcd5ef" fill-rule="evenodd" d="M 666.711,422.304 L 673.184,420.548 L 679.603,418.683 L 692.056,415.008 L 698.2,413.197 L 704.291,411.441 L 710.489,409.741 L 713.561,408.973 L 716.688,408.205 L 719.816,407.437 L 722.943,406.779 L 726.124,406.121 L 729.361,405.517 L 732.597,404.913 L 735.889,404.42 L 739.236,403.927 L 742.637,403.543 L 746.093,403.213 L 749.604,402.884 L 753.116,402.665 L 756.736,402.5 L 760.467,402.445 L 764.197,402.445 L 768.037,402.5 L 771.988,402.665 L 775.06,402.775 L 778.132,402.829 L 781.204,402.775 L 784.331,402.665 L 787.459,402.445 L 790.585,402.116 L 793.712,401.677 L 796.895,401.184 L 798.485,400.855 L 800.076,400.525 L 803.257,399.757 L 804.904,399.319 L 806.495,398.88 L 808.14,398.387 L 809.732,397.837 L 811.377,397.289 L 813.023,396.685 L 814.669,396.083 L 816.315,395.424 L 818.015,394.711 L 819.661,393.943 L 821.361,393.175 L 823.063,392.352 L 824.708,391.475 L 826.409,390.596 L 828.109,389.664 L 829.865,388.676 L 831.565,387.635 L 833.321,386.592 L 835.077,385.44 L 836.832,384.288 L 838.588,383.081 L 840.344,381.875 L 842.099,380.557 L 843.909,379.241 L 845.72,377.815 L 847.531,376.388 L 849.34,374.908 L 851.205,373.372 L 853.016,371.781 L 854.881,370.135 L 856.747,368.435 L 858.612,366.679 L 860.532,364.869 L 862.397,363.004 L 864.317,361.139 L 866.237,359.164 L 868.157,357.135 L 870.132,355.049 L 872.108,352.911 L 874.083,350.716 L 876.057,348.467 L 878.032,346.163 L 880.063,343.749 L 882.092,341.336 L 883.628,339.471 L 885.109,337.769 L 886.536,336.179 L 887.852,334.697 L 889.169,333.327 L 890.431,332.065 L 891.583,330.913 L 892.735,329.871 L 893.832,328.883 L 894.875,327.951 L 895.863,327.128 L 896.795,326.36 L 898.605,325.043 L 900.305,323.836 L 903.323,321.807 L 904.749,320.873 L 906.121,319.887 L 907.437,318.789 L 908.096,318.187 L 908.755,317.583 L 909.468,316.869 L 910.125,316.156 L 910.839,315.333 L 911.497,314.511 L 912.375,313.413 L 913.417,312.207 L 914.624,310.835 L 915.996,309.355 L 917.532,307.763 L 919.123,306.117 L 920.768,304.417 L 922.524,302.716 L 924.28,301.016 L 926.035,299.316 L 927.791,297.724 L 929.492,296.244 L 931.137,294.817 L 932.673,293.556 L 934.1,292.459 L 935.416,291.58 L 932.399,291.525 L 929.327,291.58 L 926.255,291.691 L 923.128,291.8 L 920,292.02 L 916.819,292.293 L 913.637,292.568 L 910.4,292.952 L 907.163,293.391 L 903.927,293.884 L 900.635,294.433 L 897.288,294.981 L 893.941,295.64 L 890.596,296.299 L 887.249,297.067 L 883.848,297.835 L 879.624,298.767 L 875.509,299.644 L 871.449,300.357 L 867.389,300.961 L 863.385,301.564 L 859.435,302.004 L 855.485,302.443 L 851.589,302.827 L 847.695,303.156 L 843.8,303.484 L 836.119,304.033 L 828.439,304.581 L 824.599,304.911 L 820.759,305.24 L 816.26,305.679 L 811.707,306.172 L 807.208,306.667 L 802.709,307.215 L 798.265,307.763 L 793.767,308.367 L 789.379,308.971 L 784.989,309.628 L 776.267,311 L 767.819,312.427 L 759.535,313.907 L 751.58,315.388 L 743.899,316.924 L 736.657,318.46 L 729.745,319.996 L 723.327,321.477 L 717.347,322.959 L 711.971,324.329 L 707.143,325.647 L 702.919,326.853 L 702.26,327.073 L 701.657,327.347 L 701.053,327.676 L 700.449,328.06 L 699.901,328.444 L 699.408,328.883 L 698.859,329.377 L 698.365,329.871 L 697.927,330.419 L 697.432,331.023 L 696.555,332.229 L 695.677,333.545 L 694.799,334.972 L 693.044,337.88 L 692.111,339.416 L 691.179,340.896 L 690.136,342.377 L 689.039,343.804 L 688.436,344.517 L 687.832,345.231 L 687.228,345.888 L 686.571,346.492 L 686.405,346.767 L 686.625,349.125 L 686.735,351.484 L 686.844,353.843 L 686.844,356.147 L 686.844,358.451 L 686.735,360.7 L 686.625,363.004 L 686.405,365.253 L 686.131,367.447 L 685.857,369.696 L 685.473,371.891 L 685.035,374.029 L 684.54,376.224 L 683.937,378.364 L 683.333,380.448 L 682.62,382.588 L 682.565,383.795 L 682.511,385.056 L 682.291,387.58 L 682.127,388.841 L 681.907,390.103 L 681.688,391.364 L 681.413,392.627 L 681.139,393.888 L 680.809,395.149 L 680.48,396.356 L 680.096,397.619 L 679.657,398.88 L 679.219,400.141 L 678.725,401.403 L 678.232,402.665 L 677.683,403.927 L 677.079,405.188 L 676.476,406.449 L 675.817,407.712 L 675.104,408.919 L 674.391,410.18 L 673.623,411.441 L 672.855,412.704 L 671.977,413.965 L 671.1,415.227 L 670.221,416.489 L 669.235,417.751 L 668.247,419.012 L 667.204,420.273 L 666.163,421.536 L 665.011,422.743 Z "/>
	</g>
	<g id="Dark_Brown" i:layer="yes">
		<path id="dp_path013" fill="#795029" fill-rule="evenodd" d="M 695.348,412.923 L 697.268,410.839 L 699.133,408.809 L 700.944,406.724 L 702.699,404.64 L 704.4,402.611 L 706.045,400.58 L 707.581,398.551 L 709.063,396.521 L 710.489,394.547 L 711.861,392.571 L 713.123,390.596 L 714.329,388.621 L 715.427,386.647 L 716.469,384.727 L 717.456,382.807 L 718.335,380.887 L 719.103,379.021 L 719.76,377.101 L 720.364,375.237 L 720.857,373.427 L 721.297,371.561 L 721.571,369.751 L 721.791,367.996 L 721.9,366.185 L 721.9,365.308 L 721.9,364.429 L 721.845,363.552 L 721.736,362.675 L 721.681,361.797 L 721.516,360.975 L 721.352,360.096 L 721.187,359.273 L 720.968,358.396 L 720.748,357.573 L 720.419,356.751 L 720.144,355.927 L 719.816,355.104 L 719.432,354.281 L 719.048,353.459 L 718.608,352.636 L 718.335,352.087 L 718.005,351.593 L 717.621,351.155 L 717.292,350.771 L 716.908,350.441 L 716.524,350.167 L 716.14,349.893 L 715.756,349.673 L 715.372,349.509 L 714.988,349.344 L 714.604,349.235 L 714.275,349.18 L 713.891,349.18 L 713.561,349.18 L 713.232,349.235 L 712.903,349.289 L 712.573,349.399 L 712.3,349.564 L 712.08,349.728 L 711.805,349.893 L 711.641,350.112 L 711.477,350.387 L 711.312,350.661 L 711.203,350.991 L 711.148,351.264 L 711.148,351.648 L 711.148,351.977 L 711.203,352.361 L 711.367,352.8 L 711.532,353.184 L 711.751,353.623 L 712.025,354.117 L 712.629,355.104 L 713.123,356.147 L 713.616,357.244 L 714,358.396 L 714.329,359.603 L 714.604,360.864 L 714.823,362.181 L 714.988,363.552 L 715.043,364.924 L 715.043,366.405 L 714.933,367.941 L 714.768,369.532 L 714.549,371.177 L 714.275,372.877 L 713.891,374.633 L 713.452,376.444 L 712.903,378.308 L 712.355,380.173 L 711.641,382.148 L 710.873,384.179 L 710.051,386.263 L 709.117,388.403 L 708.131,390.596 L 707.033,392.845 L 705.881,395.204 L 704.619,397.563 L 703.303,399.977 L 701.876,402.445 L 700.395,404.969 L 698.804,407.601 L 697.103,410.235 Z "/>
		<path id="dp_path014" fill="#795029" fill-rule="evenodd" d="M 351.429,412.923 L 349.509,410.839 L 347.644,408.809 L 345.833,406.724 L 344.077,404.64 L 342.377,402.611 L 340.731,400.58 L 339.195,398.551 L 337.659,396.521 L 336.232,394.547 L 334.916,392.571 L 333.599,390.596 L 332.447,388.621 L 331.295,386.647 L 330.253,384.727 L 329.32,382.807 L 328.443,380.887 L 327.675,379.021 L 326.961,377.101 L 326.357,375.237 L 325.864,373.427 L 325.48,371.561 L 325.151,369.751 L 324.987,367.996 L 324.932,367.063 L 324.876,366.185 L 324.876,365.308 L 324.876,364.429 L 324.932,363.552 L 324.987,362.675 L 325.096,361.797 L 325.205,360.975 L 325.371,360.096 L 325.589,359.273 L 325.809,358.396 L 326.028,357.573 L 326.303,356.751 L 326.632,355.927 L 326.961,355.104 L 327.291,354.281 L 327.729,353.459 L 328.113,352.636 L 328.443,352.087 L 328.772,351.593 L 329.101,351.155 L 329.485,350.771 L 329.869,350.441 L 330.197,350.167 L 330.581,349.893 L 330.967,349.673 L 331.351,349.509 L 331.735,349.344 L 332.119,349.235 L 332.503,349.18 L 332.887,349.18 L 333.215,349.18 L 333.544,349.235 L 333.873,349.289 L 334.148,349.399 L 334.423,349.564 L 334.696,349.728 L 334.916,349.893 L 335.136,350.112 L 335.3,350.387 L 335.409,350.661 L 335.52,350.991 L 335.575,351.264 L 335.629,351.648 L 335.575,351.977 L 335.52,352.361 L 335.409,352.8 L 335.245,353.184 L 335.025,353.623 L 334.752,354.117 L 334.148,355.104 L 333.599,356.147 L 333.16,357.244 L 332.721,358.396 L 332.392,359.603 L 332.119,360.864 L 331.953,362.181 L 331.789,363.552 L 331.735,364.924 L 331.735,366.405 L 331.789,367.941 L 331.953,369.532 L 332.173,371.177 L 332.503,372.877 L 332.831,374.633 L 333.325,376.444 L 333.819,378.308 L 334.423,380.173 L 335.136,382.148 L 335.848,384.179 L 336.727,386.263 L 337.604,388.403 L 338.647,390.596 L 339.689,392.845 L 340.841,395.204 L 342.103,397.563 L 343.475,399.977 L 344.845,402.445 L 346.381,404.969 L 347.973,407.601 L 349.619,410.235 Z "/>
		<path id="dp_path015" fill="#744b24" fill-rule="evenodd" d="M 540.807,476.392 L 539.984,478.367 L 539.216,480.287 L 538.448,482.261 L 537.789,484.236 L 537.131,486.211 L 536.583,488.241 L 536.033,490.271 L 535.595,492.245 L 535.156,494.329 L 534.827,496.36 L 534.552,498.389 L 534.388,500.473 L 534.279,502.559 L 534.223,504.697 L 534.223,506.783 L 534.388,508.921 L 534.552,511.609 L 534.717,514.297 L 534.772,516.931 L 534.827,519.564 L 534.827,522.197 L 534.827,524.775 L 534.717,527.299 L 534.552,529.823 L 534.388,532.345 L 534.113,534.813 L 533.839,537.283 L 533.455,539.696 L 533.071,542.109 L 532.632,544.469 L 532.139,546.828 L 531.535,549.132 L 531.041,552.368 L 530.603,555.549 L 530.273,558.676 L 530.053,561.803 L 529.889,564.107 L 529.78,566.631 L 529.669,572.281 L 529.56,578.48 L 529.56,584.953 L 529.615,591.371 L 529.669,597.515 L 529.78,603.111 L 529.944,607.773 L 531.261,606.127 L 532.632,604.427 L 533.291,603.549 L 533.895,602.727 L 534.388,601.848 L 534.772,601.08 L 534.991,600.477 L 535.211,599.928 L 535.375,599.38 L 535.485,598.776 L 535.54,598.228 L 535.595,597.68 L 535.595,597.076 L 535.595,596.528 L 535.265,590.603 L 535.047,584.679 L 534.936,581.716 L 534.936,578.753 L 534.936,575.792 L 534.936,572.829 L 535.047,569.867 L 535.211,566.905 L 535.431,563.943 L 535.704,560.98 L 536.033,558.019 L 536.472,555.056 L 536.967,552.093 L 537.569,549.132 L 538.119,546.772 L 538.612,544.359 L 539.105,541.945 L 539.489,539.587 L 539.873,537.173 L 540.148,534.704 L 540.423,532.291 L 540.587,529.823 L 540.752,527.353 L 540.807,524.885 L 540.752,522.416 L 540.697,519.893 L 540.532,517.369 L 540.313,514.847 L 539.984,512.323 L 539.6,509.744 L 539.709,507.112 L 539.819,504.588 L 540.039,502.065 L 540.313,499.651 L 540.697,497.237 L 541.081,494.933 L 541.52,492.684 L 542.013,490.435 L 542.561,488.296 L 543.165,486.156 L 543.769,484.127 L 544.483,482.097 L 545.195,480.123 L 545.963,478.147 L 546.787,476.283 L 547.664,474.417 Z "/>
	</g>
	<g id="Black" i:layer="yes">
		<path id="dp_path016" fill="black" fill-rule="evenodd" d="M 443.484,358.287 L 445.46,358.231 L 447.435,358.012 L 449.464,357.737 L 451.493,357.408 L 453.524,356.915 L 455.608,356.311 L 457.693,355.653 L 459.833,354.885 L 461.972,353.952 L 464.112,352.911 L 466.252,351.759 L 468.445,350.496 L 470.64,349.125 L 472.835,347.644 L 475.029,345.944 L 477.224,344.188 L 478.704,342.927 L 480.296,341.555 L 481.173,340.896 L 482.105,340.184 L 483.148,339.471 L 484.245,338.812 L 485.672,337.989 L 487.317,337.112 L 489.019,336.288 L 490.829,335.465 L 490.609,333.929 L 490.28,332.339 L 489.841,330.803 L 489.348,329.212 L 488.799,327.567 L 488.14,325.976 L 487.428,324.329 L 486.66,322.739 L 485.781,321.093 L 484.849,319.503 L 483.861,317.912 L 482.819,316.321 L 481.721,314.731 L 480.569,313.195 L 479.363,311.713 L 478.101,310.177 L 476.729,308.751 L 475.359,307.324 L 473.987,305.953 L 472.505,304.636 L 471.024,303.375 L 469.488,302.113 L 467.897,300.961 L 466.307,299.864 L 464.66,298.821 L 462.96,297.835 L 461.259,296.956 L 459.559,296.133 L 457.803,295.365 L 456.048,294.708 L 454.237,294.159 L 452.427,293.72 L 450.781,293.336 L 449.135,293.061 L 447.435,292.843 L 445.788,292.677 L 444.088,292.677 L 442.443,292.677 L 440.796,292.788 L 439.151,293.061 L 437.504,293.336 L 436.627,293.556 L 435.859,293.775 L 435.036,294.049 L 434.213,294.324 L 433.391,294.652 L 432.567,294.981 L 431.744,295.311 L 430.921,295.749 L 430.099,296.133 L 429.331,296.628 L 428.508,297.121 L 427.684,297.615 L 426.916,298.164 L 426.093,298.767 L 425.325,299.371 L 424.503,300.028 L 423.735,300.687 L 422.912,301.455 L 422.144,302.168 L 421.376,302.991 L 419.785,304.692 L 419.017,305.569 L 418.248,306.501 L 416.712,308.531 L 415.232,310.671 L 413.695,312.975 L 412.215,315.443 L 410.788,318.131 L 409.307,320.929 L 407.88,323.945 L 406.453,327.183 L 405.083,330.529 L 403.711,334.095 L 402.395,337.88 L 403.217,338.867 L 404.149,339.909 L 405.083,340.896 L 406.015,341.884 L 407.003,342.872 L 408.044,343.804 L 409.087,344.736 L 410.184,345.669 L 411.281,346.601 L 412.433,347.48 L 413.585,348.357 L 414.792,349.18 L 416,350.003 L 417.207,350.825 L 418.523,351.539 L 419.785,352.307 L 421.101,353.02 L 422.473,353.679 L 423.844,354.281 L 425.216,354.885 L 426.643,355.433 L 428.068,355.927 L 429.495,356.367 L 430.976,356.805 L 432.457,357.189 L 433.993,357.519 L 435.529,357.792 L 437.065,358.012 L 438.657,358.176 L 440.248,358.287 L 441.839,358.341 Z "/>
		<path id="dp_path017" fill="black" fill-rule="evenodd" d="M 607.845,358.341 L 609.381,358.231 L 610.917,358.121 L 612.399,357.957 L 613.935,357.737 L 615.416,357.519 L 616.843,357.189 L 618.269,356.86 L 619.696,356.421 L 621.121,355.983 L 622.493,355.488 L 623.865,354.995 L 625.181,354.447 L 626.499,353.843 L 627.815,353.239 L 629.076,352.527 L 630.339,351.868 L 631.6,351.155 L 632.807,350.387 L 633.959,349.619 L 635.167,348.796 L 636.263,347.973 L 637.416,347.151 L 638.457,346.272 L 639.555,345.395 L 640.543,344.517 L 641.585,343.584 L 643.505,341.72 L 645.315,339.8 L 647.016,337.88 L 645.644,334.095 L 644.273,330.529 L 642.901,327.183 L 641.475,323.945 L 640.048,320.929 L 638.623,318.131 L 637.141,315.443 L 635.66,312.975 L 634.179,310.671 L 632.643,308.531 L 631.107,306.501 L 630.339,305.569 L 629.571,304.692 L 628.035,302.991 L 627.212,302.168 L 626.443,301.455 L 625.675,300.687 L 624.852,300.028 L 624.084,299.371 L 623.261,298.767 L 622.493,298.164 L 621.671,297.615 L 620.848,297.121 L 620.08,296.628 L 619.256,296.133 L 618.433,295.749 L 617.611,295.311 L 616.843,294.981 L 615.197,294.324 L 613.551,293.775 L 612.728,293.556 L 611.905,293.336 L 610.26,293.061 L 608.559,292.788 L 606.913,292.677 L 605.267,292.677 L 603.621,292.677 L 601.921,292.843 L 600.275,293.061 L 598.575,293.336 L 596.928,293.72 L 595.119,294.159 L 593.308,294.708 L 591.552,295.365 L 589.796,296.133 L 588.096,296.956 L 586.395,297.835 L 584.695,298.821 L 583.104,299.864 L 581.457,300.961 L 579.921,302.113 L 578.331,303.375 L 576.849,304.636 L 575.423,305.953 L 573.997,307.324 L 572.625,308.751 L 571.309,310.177 L 570.047,311.713 L 568.785,313.195 L 567.633,314.731 L 566.536,316.321 L 565.493,317.912 L 564.507,319.503 L 563.573,321.093 L 562.751,322.739 L 561.928,324.329 L 561.215,325.976 L 560.556,327.567 L 560.008,329.212 L 559.513,330.803 L 559.075,332.339 L 558.745,333.929 L 558.527,335.465 L 560.392,336.288 L 562.092,337.112 L 563.683,337.989 L 565.164,338.812 L 566.261,339.471 L 567.249,340.184 L 568.181,340.896 L 569.06,341.555 L 570.651,342.927 L 572.132,344.188 L 573.284,345.176 L 574.491,346.053 L 576.849,347.808 L 578.001,348.631 L 579.153,349.399 L 580.305,350.167 L 581.457,350.825 L 582.609,351.539 L 583.763,352.143 L 584.915,352.745 L 586.067,353.349 L 587.219,353.843 L 588.371,354.336 L 590.62,355.269 L 591.717,355.653 L 592.813,356.037 L 593.911,356.367 L 595.063,356.695 L 597.257,357.244 L 599.397,357.683 L 601.537,358.012 L 603.676,358.176 L 605.761,358.287 Z "/>
		<path id="dp_path018" fill="black" fill-rule="evenodd" d="M 540.697,359.109 L 540.368,359.109 L 540.148,359.055 L 540.039,358.999 L 539.984,358.944 L 540.039,358.835 L 540.148,358.725 L 540.587,358.451 L 541.793,357.683 L 542.507,357.189 L 543.22,356.751 L 543.549,356.421 L 543.879,355.983 L 544.153,355.543 L 544.372,355.049 L 544.537,354.501 L 544.647,353.952 L 544.647,353.295 L 544.647,352.691 L 544.537,352.032 L 544.372,351.319 L 544.153,350.661 L 543.879,349.948 L 543.549,349.235 L 543.111,348.576 L 542.672,347.863 L 542.123,347.205 L 541.629,346.656 L 541.081,346.108 L 540.477,345.615 L 539.873,345.12 L 539.16,344.627 L 538.448,344.188 L 537.68,343.804 L 536.856,343.42 L 535.979,343.036 L 535.047,342.761 L 534.113,342.488 L 533.071,342.213 L 532.029,342.048 L 530.932,341.939 L 529.725,341.829 L 528.517,341.829 L 528.408,341.775 L 528.353,341.775 L 528.353,341.72 L 528.353,341.609 L 528.408,341.5 L 528.572,341.445 L 528.956,341.225 L 529.231,341.116 L 529.56,341.007 L 529.999,340.896 L 530.493,340.841 L 531.041,340.787 L 531.645,340.787 L 532.357,340.787 L 533.127,340.841 L 534.004,340.896 L 534.881,341.007 L 535.704,341.171 L 536.472,341.391 L 537.24,341.609 L 537.953,341.884 L 538.667,342.159 L 539.38,342.488 L 540.039,342.816 L 540.641,343.2 L 541.245,343.584 L 541.849,343.968 L 542.397,344.408 L 542.891,344.901 L 543.385,345.395 L 543.824,345.888 L 544.263,346.383 L 544.701,346.931 L 545.085,347.424 L 545.415,347.973 L 545.744,348.576 L 546.019,349.125 L 546.292,349.728 L 546.512,350.277 L 546.896,351.484 L 547.06,352.032 L 547.171,352.636 L 547.225,353.239 L 547.28,353.843 L 547.335,354.391 L 547.335,354.995 L 547.28,355.488 L 547.225,355.763 L 547.116,356.092 L 546.951,356.367 L 546.732,356.695 L 546.512,357.024 L 546.183,357.353 L 545.799,357.683 L 545.36,357.957 L 544.811,358.231 L 544.208,358.505 L 543.495,358.725 L 542.672,358.889 L 541.739,358.999 Z "/>
		<path id="dp_path019" fill="black" fill-rule="evenodd" d="M 505.971,359.109 L 506.3,359.109 L 506.519,359.055 L 506.684,358.999 L 506.684,358.944 L 506.684,358.835 L 506.519,358.725 L 506.135,358.451 L 504.873,357.683 L 504.16,357.189 L 503.501,356.751 L 503.117,356.421 L 502.788,355.983 L 502.515,355.543 L 502.295,355.049 L 502.185,354.501 L 502.075,353.952 L 502.02,353.295 L 502.075,352.691 L 502.185,352.032 L 502.295,351.319 L 502.515,350.661 L 502.843,349.948 L 503.172,349.235 L 503.556,348.576 L 504.051,347.863 L 504.599,347.205 L 505.092,346.656 L 505.641,346.108 L 506.189,345.615 L 506.848,345.12 L 507.507,344.627 L 508.275,344.188 L 509.043,343.804 L 509.865,343.42 L 510.743,343.036 L 511.621,342.761 L 512.608,342.488 L 513.596,342.213 L 514.693,342.048 L 515.791,341.939 L 516.943,341.829 L 518.204,341.829 L 518.259,341.775 L 518.313,341.775 L 518.368,341.72 L 518.368,341.609 L 518.259,341.5 L 518.149,341.445 L 517.765,341.225 L 517.491,341.116 L 517.107,341.007 L 516.723,340.896 L 516.229,340.841 L 515.68,340.787 L 515.023,340.787 L 514.364,340.787 L 513.541,340.841 L 512.663,340.896 L 511.84,341.007 L 511.017,341.171 L 510.249,341.391 L 509.481,341.609 L 508.713,341.884 L 508,342.159 L 507.341,342.488 L 506.684,342.816 L 506.025,343.2 L 505.421,343.584 L 504.873,343.968 L 504.324,344.408 L 503.831,344.901 L 503.337,345.395 L 502.843,345.888 L 502.404,346.383 L 502.02,346.931 L 501.636,347.424 L 501.307,347.973 L 500.977,348.576 L 500.704,349.125 L 500.429,349.728 L 500.209,350.277 L 499.991,350.88 L 499.825,351.484 L 499.661,352.032 L 499.552,352.636 L 499.441,353.239 L 499.387,353.843 L 499.387,354.391 L 499.387,354.995 L 499.441,355.488 L 499.497,355.763 L 499.607,356.092 L 499.771,356.367 L 499.936,356.695 L 500.209,357.024 L 500.539,357.353 L 500.923,357.683 L 501.361,357.957 L 501.911,358.231 L 502.515,358.505 L 503.227,358.725 L 504.051,358.889 L 504.928,358.999 Z "/>
		<path id="dp_path020" fill="black" fill-rule="evenodd" d="M 538.776,354.775 L 537.953,354.227 L 537.131,353.733 L 536.308,353.349 L 535.869,353.184 L 535.431,353.02 L 534.991,352.965 L 534.552,352.855 L 534.113,352.855 L 533.675,352.911 L 533.236,352.965 L 532.797,353.075 L 532.303,353.295 L 531.809,353.513 L 531.371,353.843 L 530.932,354.172 L 529.944,355.049 L 529.341,355.488 L 528.683,355.927 L 528.024,356.311 L 527.201,356.695 L 528.133,356.86 L 529.012,356.969 L 529.889,357.024 L 530.712,357.024 L 531.535,357.024 L 532.303,357.024 L 533.071,356.915 L 533.784,356.86 L 534.497,356.695 L 535.211,356.531 L 535.869,356.311 L 536.472,356.092 L 537.076,355.763 L 537.68,355.488 L 538.228,355.159 Z "/>
		<path id="dp_path021" fill="black" fill-rule="evenodd" d="M 507.945,354.775 L 508.768,354.227 L 509.591,353.733 L 510.413,353.349 L 510.853,353.184 L 511.237,353.02 L 511.676,352.965 L 512.115,352.855 L 512.553,352.855 L 512.992,352.911 L 513.487,352.965 L 513.925,353.075 L 514.419,353.295 L 514.857,353.513 L 515.296,353.843 L 515.791,354.172 L 516.777,355.049 L 517.381,355.488 L 517.984,355.927 L 518.697,356.311 L 519.521,356.695 L 518.588,356.86 L 517.711,356.969 L 516.832,357.024 L 516.009,357.024 L 515.187,357.024 L 514.364,357.024 L 513.651,356.915 L 512.883,356.86 L 512.169,356.695 L 511.511,356.531 L 510.853,356.311 L 510.195,356.092 L 509.591,355.763 L 509.043,355.488 L 508.439,355.159 Z "/>
		<path id="dp_path022" fill="black" fill-rule="evenodd" d="M 516.777,325.701 L 517.491,325.537 L 518.259,325.372 L 519.849,325.097 L 520.673,325.043 L 521.551,324.933 L 522.373,324.933 L 523.251,324.933 L 524.019,324.933 L 524.843,324.988 L 526.433,325.153 L 528.133,325.427 L 529.889,325.701 L 529.451,325.263 L 528.847,324.769 L 528.188,324.22 L 527.42,323.727 L 527.036,323.507 L 526.543,323.288 L 526.104,323.068 L 525.555,322.904 L 525.007,322.793 L 524.459,322.684 L 523.855,322.575 L 523.196,322.575 L 522.539,322.575 L 521.88,322.629 L 521.331,322.739 L 520.783,322.849 L 520.344,323.013 L 519.905,323.233 L 519.465,323.452 L 519.136,323.672 L 518.479,324.22 L 517.875,324.713 L 517.327,325.263 Z "/>
		<path id="dp_path023" fill="black" fill-rule="evenodd" d="M 513.487,334.972 L 514.528,334.752 L 515.68,334.588 L 516.832,334.424 L 518.095,334.313 L 519.356,334.204 L 520.617,334.095 L 521.88,334.04 L 523.196,334.04 L 524.403,334.095 L 525.611,334.149 L 528.024,334.368 L 530.548,334.643 L 533.236,334.972 L 532.468,334.424 L 531.645,333.875 L 530.657,333.272 L 530.109,332.943 L 529.505,332.668 L 528.847,332.393 L 528.188,332.175 L 527.476,331.9 L 526.708,331.736 L 525.884,331.571 L 525.007,331.407 L 524.075,331.352 L 523.141,331.297 L 522.099,331.297 L 521.167,331.352 L 520.289,331.516 L 519.521,331.681 L 518.808,331.845 L 518.149,332.065 L 517.545,332.339 L 516.997,332.613 L 516.448,332.888 L 516.009,333.217 L 515.132,333.82 L 514.309,334.424 Z "/>
		<path id="dp_path024" fill="black" fill-rule="evenodd" d="M 558.252,397.235 L 555.893,395.808 L 554.741,395.149 L 553.589,394.491 L 551.229,393.284 L 548.871,392.243 L 546.567,391.255 L 544.208,390.432 L 541.904,389.664 L 539.6,389.005 L 537.24,388.457 L 534.936,388.019 L 532.632,387.689 L 530.383,387.469 L 528.079,387.305 L 525.775,387.196 L 523.525,387.196 L 521.276,387.305 L 519.027,387.469 L 516.777,387.689 L 514.583,388.019 L 512.389,388.403 L 510.195,388.841 L 508,389.335 L 505.86,389.939 L 503.721,390.541 L 501.581,391.2 L 499.497,391.968 L 497.412,392.736 L 495.327,393.559 L 493.297,394.436 L 491.268,395.315 L 489.293,396.247 L 487.263,397.235 L 484.52,398.715 L 481.612,400.307 L 478.485,402.061 L 475.193,403.872 L 473.493,404.749 L 471.737,405.627 L 469.981,406.505 L 468.116,407.383 L 466.252,408.205 L 464.331,409.028 L 462.356,409.796 L 460.327,410.509 L 464.88,409.083 L 469.049,407.712 L 472.944,406.285 L 474.755,405.627 L 476.511,404.913 L 478.211,404.201 L 479.801,403.488 L 481.337,402.775 L 482.764,402.061 L 484.136,401.403 L 485.452,400.691 L 486.715,399.977 L 487.867,399.264 L 488.689,398.715 L 489.567,398.221 L 490.445,397.783 L 491.377,397.344 L 492.311,396.905 L 493.297,396.467 L 495.327,395.699 L 497.412,395.04 L 499.661,394.381 L 501.911,393.888 L 504.215,393.395 L 506.628,392.955 L 509.097,392.627 L 511.565,392.352 L 514.089,392.132 L 516.613,392.023 L 519.136,391.913 L 521.715,391.913 L 524.239,391.913 L 526.817,392.023 L 529.341,392.187 L 531.809,392.352 L 534.279,392.627 L 536.692,392.955 L 538.996,393.284 L 541.3,393.668 L 543.549,394.163 L 545.689,394.656 L 547.719,395.149 L 549.693,395.753 L 551.504,396.356 L 553.26,397.015 L 554.851,397.728 L 556.332,398.496 L 557.704,399.264 L 559.129,400.141 L 560.556,400.964 L 561.983,401.732 L 563.355,402.5 L 566.043,403.817 L 568.62,404.969 L 571.253,406.065 L 573.723,406.999 L 576.081,407.767 L 578.221,408.48 L 580.251,409.083 L 582.061,409.577 L 583.763,410.071 L 585.188,410.509 L 584.695,410.289 L 583.763,409.961 L 581.073,408.753 L 577.453,407.108 L 573.284,405.133 L 568.949,402.995 L 564.725,400.855 L 562.805,399.867 L 561.049,398.88 L 559.513,398.003 Z "/>
	</g>
	<g id="White" i:layer="yes">
		<path id="dp_path025" fill="white" fill-rule="evenodd" d="M 601.537,314.072 L 602.633,314.127 L 603.183,314.181 L 603.731,314.291 L 604.773,314.565 L 605.761,314.895 L 606.748,315.333 L 607.627,315.883 L 608.504,316.485 L 609.272,317.144 L 609.985,317.912 L 610.589,318.735 L 611.137,319.612 L 611.576,320.489 L 611.96,321.477 L 612.235,322.465 L 612.344,323.013 L 612.399,323.507 L 612.453,324.056 L 612.453,324.604 L 612.453,325.153 L 612.399,325.701 L 612.344,326.195 L 612.235,326.744 L 611.96,327.731 L 611.576,328.719 L 611.137,329.596 L 610.589,330.473 L 609.985,331.297 L 609.272,332.065 L 608.504,332.723 L 607.627,333.327 L 606.748,333.875 L 605.761,334.313 L 604.773,334.643 L 603.731,334.917 L 603.183,335.027 L 602.633,335.081 L 602.085,335.136 L 601.537,335.136 L 600.988,335.136 L 600.385,335.081 L 599.836,335.027 L 599.343,334.917 L 598.793,334.808 L 598.3,334.643 L 597.257,334.313 L 596.325,333.875 L 595.392,333.327 L 594.569,332.723 L 593.801,332.065 L 593.088,331.297 L 592.485,330.473 L 591.936,329.596 L 591.443,328.719 L 591.277,328.225 L 591.113,327.731 L 590.839,326.744 L 590.729,326.195 L 590.675,325.701 L 590.62,325.153 L 590.62,324.604 L 590.62,324.056 L 590.675,323.507 L 590.729,323.013 L 590.839,322.465 L 591.113,321.477 L 591.277,320.984 L 591.443,320.489 L 591.661,320.051 L 591.936,319.612 L 592.485,318.735 L 593.088,317.912 L 593.801,317.144 L 594.569,316.485 L 595.392,315.883 L 596.325,315.333 L 596.764,315.115 L 597.257,314.895 L 598.3,314.565 L 599.343,314.291 L 599.836,314.181 L 600.385,314.127 Z "/>
		<path id="dp_path026" fill="white" fill-rule="evenodd" d="M 448.148,314.072 L 449.245,314.127 L 449.793,314.181 L 450.341,314.291 L 451.384,314.565 L 452.372,314.895 L 453.359,315.333 L 454.237,315.883 L 455.115,316.485 L 455.883,317.144 L 456.596,317.912 L 457.2,318.735 L 457.748,319.612 L 458.241,320.489 L 458.571,321.477 L 458.845,322.465 L 458.955,323.013 L 459.009,323.507 L 459.065,324.056 L 459.065,324.604 L 459.065,325.153 L 459.009,325.701 L 458.955,326.195 L 458.845,326.744 L 458.571,327.731 L 458.241,328.719 L 457.748,329.596 L 457.2,330.473 L 456.596,331.297 L 455.883,332.065 L 455.115,332.723 L 454.237,333.327 L 453.359,333.875 L 452.372,334.313 L 451.384,334.643 L 450.341,334.917 L 449.793,335.027 L 449.245,335.081 L 448.696,335.136 L 448.148,335.136 L 447.599,335.136 L 447.051,335.081 L 446.501,335.027 L 445.953,334.917 L 445.404,334.808 L 444.911,334.643 L 443.868,334.313 L 442.936,333.875 L 442.059,333.327 L 441.18,332.723 L 440.412,332.065 L 439.699,331.297 L 439.096,330.473 L 438.547,329.596 L 438.053,328.719 L 437.888,328.225 L 437.724,327.731 L 437.449,326.744 L 437.34,326.195 L 437.285,325.701 L 437.231,325.153 L 437.231,324.604 L 437.231,324.056 L 437.285,323.507 L 437.34,323.013 L 437.449,322.465 L 437.724,321.477 L 437.888,320.984 L 438.053,320.489 L 438.272,320.051 L 438.547,319.612 L 439.096,318.735 L 439.699,317.912 L 440.412,317.144 L 441.18,316.485 L 442.059,315.883 L 442.936,315.333 L 443.429,315.115 L 443.868,314.895 L 444.911,314.565 L 445.953,314.291 L 446.501,314.181 L 447.051,314.127 Z "/>
		<path id="dp_path027" fill="white" fill-rule="evenodd" d="M 615.087,305.131 L 615.527,305.131 L 615.965,305.185 L 616.349,305.295 L 616.733,305.404 L 617.117,305.624 L 617.447,305.788 L 617.776,306.008 L 618.049,306.283 L 618.324,306.556 L 618.544,306.885 L 618.763,307.215 L 618.928,307.544 L 619.092,307.928 L 619.201,308.312 L 619.256,308.696 L 619.256,309.135 L 619.256,309.519 L 619.201,309.957 L 619.092,310.341 L 618.928,310.671 L 618.763,311.055 L 618.544,311.384 L 618.324,311.659 L 618.049,311.987 L 617.776,312.207 L 617.447,312.481 L 617.117,312.645 L 616.733,312.811 L 616.349,312.975 L 615.965,313.084 L 615.527,313.139 L 615.087,313.139 L 614.648,313.139 L 614.264,313.084 L 613.88,312.975 L 613.496,312.811 L 613.112,312.645 L 612.783,312.481 L 612.453,312.207 L 612.18,311.987 L 611.905,311.659 L 611.631,311.384 L 611.412,311.055 L 611.247,310.671 L 611.137,310.341 L 611.028,309.957 L 610.973,309.519 L 610.917,309.135 L 610.973,308.696 L 611.028,308.312 L 611.137,307.928 L 611.247,307.544 L 611.412,307.215 L 611.631,306.885 L 611.905,306.556 L 612.18,306.283 L 612.453,306.008 L 612.783,305.788 L 613.112,305.624 L 613.496,305.404 L 613.88,305.295 L 614.264,305.185 L 614.648,305.131 Z "/>
		<path id="dp_path028" fill="white" fill-rule="evenodd" d="M 461.697,305.131 L 462.137,305.131 L 462.576,305.185 L 462.96,305.295 L 463.344,305.404 L 463.728,305.624 L 464.057,305.788 L 464.387,306.008 L 464.66,306.283 L 464.935,306.556 L 465.155,306.885 L 465.373,307.215 L 465.539,307.544 L 465.703,307.928 L 465.812,308.312 L 465.868,308.696 L 465.868,309.135 L 465.868,309.519 L 465.812,309.957 L 465.703,310.341 L 465.539,310.671 L 465.373,311.055 L 465.155,311.384 L 464.935,311.659 L 464.66,311.987 L 464.387,312.207 L 464.057,312.481 L 463.728,312.645 L 463.344,312.811 L 462.96,312.975 L 462.576,313.084 L 462.137,313.139 L 461.697,313.139 L 461.313,313.139 L 460.875,313.084 L 460.491,312.975 L 460.107,312.811 L 459.723,312.645 L 459.393,312.481 L 459.065,312.207 L 458.791,311.987 L 458.516,311.659 L 458.241,311.384 L 458.077,311.055 L 457.857,310.671 L 457.748,310.341 L 457.639,309.957 L 457.584,309.519 L 457.528,309.135 L 457.584,308.696 L 457.639,308.312 L 457.748,307.928 L 457.857,307.544 L 458.077,307.215 L 458.241,306.885 L 458.516,306.556 L 458.791,306.283 L 459.065,306.008 L 459.393,305.788 L 459.723,305.624 L 460.107,305.404 L 460.491,305.295 L 460.875,305.185 L 461.313,305.131 Z "/>
	</g>
</svg>